<?xml version="1.0" encoding="UTF-8" standalone="no"?>
<svg
   xmlns:dc="http://purl.org/dc/elements/1.1/"
   xmlns:cc="http://creativecommons.org/ns#"
   xmlns:rdf="http://www.w3.org/1999/02/22-rdf-syntax-ns#"
   xmlns:svg="http://www.w3.org/2000/svg"
   xmlns="http://www.w3.org/2000/svg"
   xmlns:xlink="http://www.w3.org/1999/xlink"
   xmlns:sodipodi="http://sodipodi.sourceforge.net/DTD/sodipodi-0.dtd"
   xmlns:inkscape="http://www.inkscape.org/namespaces/inkscape"
   inkscape:export-ydpi="192"
   inkscape:export-xdpi="192"
   inkscape:export-filename="/home/sardylan/develop/stationlog/station/station/static/description/icon.png"
   inkscape:version="0.92.3 (2405546, 2018-03-11)"
   sodipodi:docname="icon.svg"
   id="svg844"
   version="1.1"
   viewBox="0 0 70 70"
   height="70"
   width="70">
  <sodipodi:namedview
     inkscape:current-layer="svg844"
     inkscape:window-maximized="1"
     inkscape:window-y="0"
     inkscape:window-x="0"
     inkscape:cy="20.853017"
     inkscape:cx="-9.2493695"
     inkscape:zoom="8.0000004"
     showgrid="false"
     id="namedview846"
     inkscape:window-height="1009"
     inkscape:window-width="1920"
     inkscape:pageshadow="2"
     inkscape:pageopacity="0"
     guidetolerance="10"
     gridtolerance="10"
     objecttolerance="10"
     borderopacity="1"
     bordercolor="#666666"
     pagecolor="#ffffff" />
  <metadata
     id="metadata848">
    <rdf:RDF>
      <cc:Work
         rdf:about="">
        <dc:format>image/svg+xml</dc:format>
        <dc:type
           rdf:resource="http://purl.org/dc/dcmitype/StillImage" />
      </cc:Work>
    </rdf:RDF>
  </metadata>
  <defs
     id="defs823">
    <path
       d="M4 0h61c4 0 5 1 5 5v60c0 4-1 5-5 5H4c-3 0-4-1-4-5V5c0-4 1-5 4-5z"
       id="a" />
    <linearGradient
       gradientUnits="userSpaceOnUse"
       y2="70"
       y1="0"
       x2="0"
       x1="70"
       id="c">
      <stop
         id="stop816"
         stop-color="#269396"
         offset="0%" />
      <stop
         id="stop818"
         stop-color="#218689"
         offset="100%" />
    </linearGradient>
    <path
       d="M26.971 49.017c0 2.879-2.4 5.212-5.36 5.212-2.961 0-5.361-2.333-5.361-5.212 0-2.878 2.4-5.211 5.36-5.211 2.961 0 5.361 2.333 5.361 5.211zm14.704 3.846c-.7-12.582-11.065-22.672-24.02-23.352-.764-.04-1.405.557-1.405 1.301v3.912c0 .685.543 1.26 1.246 1.304 9.361.592 16.864 7.87 17.475 16.99.046.683.637 1.211 1.341 1.211h4.024c.766 0 1.38-.623 1.339-1.366zm12.074.023c-.702-19.028-16.45-34.428-36.118-35.114-.755-.027-1.381.567-1.381 1.302v3.912c0 .702.572 1.273 1.293 1.302 16.003.638 28.848 13.128 29.504 28.684.03.701.617 1.257 1.339 1.257h4.023c.757 0 1.367-.608 1.34-1.343z"
       id="d" />
    <path
       d="M26.971 47.017c0 2.879-2.4 5.212-5.36 5.212-2.961 0-5.361-2.333-5.361-5.212 0-2.878 2.4-5.211 5.36-5.211 2.961 0 5.361 2.333 5.361 5.211zm14.704 3.846c-.7-12.582-11.065-22.672-24.02-23.352-.764-.04-1.405.557-1.405 1.301v3.912c0 .685.543 1.26 1.246 1.304 9.361.592 16.864 7.87 17.475 16.99.046.683.637 1.211 1.341 1.211h4.024c.766 0 1.38-.623 1.339-1.366zm12.074.023c-.702-19.028-16.45-34.428-36.118-35.114-.755-.027-1.381.567-1.381 1.302v3.912c0 .702.572 1.273 1.293 1.302 16.003.638 28.848 13.128 29.504 28.684.03.701.617 1.257 1.339 1.257h4.023c.757 0 1.367-.608 1.34-1.343z"
       id="e" />
    <mask
       id="b"
       fill="#fff">
      <use
         xlink:href="#a"
         id="use825" />
    </mask>
    <path
       id="icon-a"
       d="M4,5.35309892e-14 C36.4160122,9.87060235e-15 58.0836068,-3.97961823e-14 65,5.07020818e-14 C69,6.733808e-14 70,1 70,5 C70,43.0488877 70,62.4235458 70,65 C70,69 69,70 65,70 C61,70 9,70 4,70 C1,70 7.10542736e-15,69 7.10542736e-15,65 C7.25721566e-15,62.4676575 3.83358709e-14,41.8005206 3.60818146e-14,5 C-1.13686838e-13,1 1,5.75716207e-14 4,5.35309892e-14 Z" />
    <linearGradient
       gradientTransform="translate(61.617647,44.364706)"
       gradientUnits="userSpaceOnUse"
       id="icon-c"
       x1="70"
       x2="0"
       y1="0"
       y2="70">
      <stop
         offset="0%"
         stop-color="#269396"
         id="stop872" />
      <stop
         offset="100%"
         stop-color="#218689"
         id="stop874" />
    </linearGradient>
    <path
       id="icon-d"
       d="M35.5,22.75 C39.6529297,22.75 43.0195312,26.1166016 43.0195312,30.2695312 C43.0195312,34.4224609 39.6529297,37.7890625 35.5,37.7890625 C31.3470703,37.7890625 27.9804687,34.4224609 27.9804687,30.2695312 C27.9804687,26.1166016 31.3470703,22.75 35.5,22.75 Z M43.6256055,38.3165755 L40.7623112,37.6007161 C37.2411654,40.1333659 32.9730794,39.5681836 30.2377604,37.6007161 L27.3744661,38.3165755 C25.0790039,38.8904232 23.46875,40.9527799 23.46875,43.3188542 L23.46875,47.671875 C23.46875,49.0957161 24.6230339,50.25 26.046875,50.25 L44.953125,50.25 C46.3769661,50.25 47.53125,49.0957161 47.53125,47.671875 L47.53125,43.3188542 C47.53125,40.9527799 45.9209961,38.8904232 43.6256055,38.3165755 Z M50.3958333,39.6510417 C53.1644531,39.6510417 55.4088542,37.4066406 55.4088542,34.6380208 C55.4088542,31.869401 53.1644531,29.625 50.3958333,29.625 C47.6272135,29.625 45.3828125,31.869401 45.3828125,34.6380208 C45.3828125,37.4066406 47.6272135,39.6510417 50.3958333,39.6510417 Z M20.6041667,39.6510417 C23.3727865,39.6510417 25.6171875,37.4066406 25.6171875,34.6380208 C25.6171875,31.869401 23.3727865,29.625 20.6041667,29.625 C17.8355469,29.625 15.5911458,31.869401 15.5911458,34.6380208 C15.5911458,37.4066406 17.8355469,39.6510417 20.6041667,39.6510417 Z M22.3229167,47.671875 L22.3229167,43.3188542 C22.3229167,42.1335612 22.6518424,41.0125781 23.2326367,40.0533008 C21.0850586,41.1074674 18.6968555,40.6769206 17.0959831,39.5255013 L15.1870964,40.0027409 C13.6568359,40.3852344 12.5833333,41.7602344 12.5833333,43.3375456 L12.5833333,46.2395833 C12.5833333,47.1888346 13.352832,47.9583333 14.3020833,47.9583333 L22.3350195,47.9583333 C22.3273388,47.8630362 22.3233016,47.7674804 22.3229167,47.671875 Z M55.8129036,40.0026693 L53.9040169,39.5254297 C51.9041797,40.9638802 49.5434049,40.902793 47.7604883,40.0423437 C48.3454362,41.004056 48.6770833,42.1289779 48.6770833,43.3188542 L48.6770833,47.671875 C48.6770833,47.7683398 48.6722135,47.8636589 48.6649805,47.9583333 L56.6979167,47.9583333 C57.647168,47.9583333 58.4166667,47.1888346 58.4166667,46.2395833 L58.4166667,43.3375456 C58.4166667,41.7602344 57.3431641,40.3852344 55.8129036,40.0026693 Z" />
    <path
       id="icon-e"
       d="M35.5,20.75 C39.6529297,20.75 43.0195312,24.1166016 43.0195312,28.2695312 C43.0195312,32.4224609 39.6529297,35.7890625 35.5,35.7890625 C31.3470703,35.7890625 27.9804687,32.4224609 27.9804687,28.2695312 C27.9804687,24.1166016 31.3470703,20.75 35.5,20.75 Z M43.6256055,36.3165755 L40.7623112,35.6007161 C37.2411654,38.1333659 32.9730794,37.5681836 30.2377604,35.6007161 L27.3744661,36.3165755 C25.0790039,36.8904232 23.46875,38.9527799 23.46875,41.3188542 L23.46875,45.671875 C23.46875,47.0957161 24.6230339,48.25 26.046875,48.25 L44.953125,48.25 C46.3769661,48.25 47.53125,47.0957161 47.53125,45.671875 L47.53125,41.3188542 C47.53125,38.9527799 45.9209961,36.8904232 43.6256055,36.3165755 Z M50.3958333,37.6510417 C53.1644531,37.6510417 55.4088542,35.4066406 55.4088542,32.6380208 C55.4088542,29.869401 53.1644531,27.625 50.3958333,27.625 C47.6272135,27.625 45.3828125,29.869401 45.3828125,32.6380208 C45.3828125,35.4066406 47.6272135,37.6510417 50.3958333,37.6510417 Z M20.6041667,37.6510417 C23.3727865,37.6510417 25.6171875,35.4066406 25.6171875,32.6380208 C25.6171875,29.869401 23.3727865,27.625 20.6041667,27.625 C17.8355469,27.625 15.5911458,29.869401 15.5911458,32.6380208 C15.5911458,35.4066406 17.8355469,37.6510417 20.6041667,37.6510417 Z M22.3229167,45.671875 L22.3229167,41.3188542 C22.3229167,40.1335612 22.6518424,39.0125781 23.2326367,38.0533008 C21.0850586,39.1074674 18.6968555,38.6769206 17.0959831,37.5255013 L15.1870964,38.0027409 C13.6568359,38.3852344 12.5833333,39.7602344 12.5833333,41.3375456 L12.5833333,44.2395833 C12.5833333,45.1888346 13.352832,45.9583333 14.3020833,45.9583333 L22.3350195,45.9583333 C22.3273388,45.8630362 22.3233016,45.7674804 22.3229167,45.671875 Z M55.8129036,38.0026693 L53.9040169,37.5254297 C51.9041797,38.9638802 49.5434049,38.902793 47.7604883,38.0423437 C48.3454362,39.004056 48.6770833,40.1289779 48.6770833,41.3188542 L48.6770833,45.671875 C48.6770833,45.7683398 48.6722135,45.8636589 48.6649805,45.9583333 L56.6979167,45.9583333 C57.647168,45.9583333 58.4166667,45.1888346 58.4166667,44.2395833 L58.4166667,41.3375456 C58.4166667,39.7602344 57.3431641,38.3852344 55.8129036,38.0026693 Z" />
    <mask
       fill="#fff"
       id="icon-b">
      <use
         id="use881"
         xlink:href="#icon-a"
         x="0"
         y="0"
         width="100%"
         height="100%" />
    </mask>
    <clipPath
       clipPathUnits="userSpaceOnUse"
       id="clipPath2490">
      <path
         d="M 0,0 H 70 V 70 H 0 Z"
         id="path2492"
         style="fill:#5d8367;fill-opacity:1;fill-rule:evenodd"
         inkscape:connector-curvature="0" />
    </clipPath>
  </defs>
  <path
     style="fill:#5d8367;fill-rule:evenodd;fill-opacity:1"
     d="M 4 1 C 2 1 0.667 1.667 0 3 L 0 66 C 0.667 68 2 69 4 69 L 65 69 C 67.667 69 69.333 68 70 66 L 70 3 C 69.333 1.667 67.667 1 65 1 L 4 1 z "
     id="path828" />
  <path
     style="fill:#000000;stroke-width:0.23332678;opacity:0.331"
     clip-path="url(#clipPath2490)"
     d="M 35.570312 8.140625 C 35.230325 8.1361191 34.889718 8.1436707 34.548828 8.1621094 C 32.385744 8.1376719 30.26336 8.5785807 28.289062 9.390625 C 27.499344 9.7154427 26.733425 10.099613 25.998047 10.537109 C 25.630358 10.755858 25.27144 10.987771 24.919922 11.232422 C 24.919922 11.232422 24.917969 11.234375 24.917969 11.234375 C 24.916491 11.235403 24.91554 11.237253 24.914062 11.238281 C 24.355707 11.627263 23.82437 12.054493 23.3125 12.503906 C 23.181762 12.618674 23.045391 12.727242 22.917969 12.845703 C 22.916623 12.846953 22.915408 12.848359 22.914062 12.849609 C 22.602843 13.139117 22.301961 13.439489 22.011719 13.75 C 22.011719 13.75 22.009766 13.751953 22.009766 13.751953 C 22.009766 13.751953 22.007812 13.753906 22.007812 13.753906 C 22.004338 13.757624 22.001519 13.761904 21.998047 13.765625 C 21.995203 13.768669 21.993076 13.772345 21.990234 13.775391 C 21.986137 13.779777 21.982609 13.784673 21.978516 13.789062 C 21.973791 13.794121 21.969562 13.799625 21.964844 13.804688 L 21.962891 13.806641 L 21.960938 13.808594 C 21.686492 14.104812 21.417999 14.408859 21.164062 14.722656 C 21.164062 14.722656 21.164062 14.724609 21.164062 14.724609 C 21.162907 14.726036 21.161311 14.727088 21.160156 14.728516 C 21.159255 14.72963 21.159104 14.731307 21.158203 14.732422 C 21.155572 14.735672 21.15302 14.738935 21.150391 14.742188 L 21.148438 14.744141 L 21.146484 14.746094 C 21.142705 14.750754 21.13854 14.755101 21.134766 14.759766 C 21.130407 14.765139 21.125446 14.770013 21.121094 14.775391 C 21.113523 14.784721 21.105208 14.793389 21.097656 14.802734 C 21.092977 14.808507 21.088657 14.814535 21.083984 14.820312 C 21.077564 14.828224 21.07086 14.835829 21.064453 14.84375 C 21.057776 14.851971 21.047678 14.860908 21.041016 14.869141 C 21.029906 14.882813 21.018883 14.896452 21.007812 14.910156 C 20.995555 14.925258 20.982911 14.939937 20.970703 14.955078 C 20.965781 14.96115 20.959992 14.966578 20.955078 14.972656 C 20.944887 14.985188 20.933985 14.997207 20.923828 15.009766 C 20.909185 15.027761 20.895432 15.046402 20.880859 15.064453 C 20.873022 15.074098 20.863286 15.082136 20.855469 15.091797 C 20.839722 15.111118 20.822306 15.129051 20.806641 15.148438 C 20.793218 15.164922 20.778988 15.180734 20.765625 15.197266 C 20.747828 15.21911 20.728631 15.239792 20.710938 15.261719 C 20.696047 15.280018 20.680833 15.298049 20.666016 15.316406 C 20.650869 15.335009 20.634213 15.352431 20.619141 15.371094 C 20.602753 15.391198 20.586612 15.411466 20.570312 15.431641 C 20.552816 15.453089 20.533022 15.472612 20.515625 15.494141 C 20.498368 15.515285 20.480051 15.535418 20.462891 15.556641 C 20.435626 15.590006 20.407883 15.622691 20.380859 15.65625 C 20.365695 15.674877 20.349073 15.692249 20.333984 15.710938 C 20.309725 15.740643 20.283833 15.768969 20.259766 15.798828 C 20.243119 15.819238 20.225541 15.838893 20.208984 15.859375 C 20.182051 15.892289 20.153651 15.923929 20.126953 15.957031 C 20.105007 15.983905 20.082337 16.01011 20.060547 16.037109 C 20.036259 16.066813 20.010424 16.095143 19.986328 16.125 C 19.962915 16.153625 19.937298 16.180217 19.914062 16.208984 C 19.880636 16.249794 19.845565 16.288978 19.8125 16.330078 C 19.794357 16.352308 19.775848 16.374168 19.757812 16.396484 C 19.724095 16.437598 19.687647 16.476169 19.654297 16.517578 C 19.634723 16.541513 19.611247 16.565809 19.591797 16.589844 C 19.551521 16.638862 19.510456 16.68689 19.470703 16.736328 C 19.449396 16.762404 19.425457 16.786306 19.404297 16.8125 C 19.367021 16.857894 19.327843 16.901512 19.291016 16.947266 C 19.263182 16.981264 19.234614 17.014629 19.207031 17.048828 C 19.176216 17.086385 19.14379 17.122353 19.113281 17.160156 C 19.077457 17.203764 19.039317 17.245123 19.003906 17.289062 C 18.970461 17.329812 18.935428 17.369116 18.902344 17.410156 C 18.864495 17.456243 18.824496 17.500418 18.787109 17.546875 C 18.752197 17.589439 18.716159 17.630948 18.681641 17.673828 C 18.650019 17.712357 18.615284 17.748322 18.583984 17.787109 C 18.543994 17.835696 18.502367 17.882641 18.462891 17.931641 C 18.422045 17.981321 18.380152 18.029966 18.339844 18.080078 C 18.306136 18.121123 18.26967 18.159833 18.236328 18.201172 C 18.196996 18.248915 18.15407 18.293654 18.115234 18.341797 C 18.071438 18.394933 18.025603 18.446369 17.982422 18.5 C 17.9425 18.548505 17.900737 18.595615 17.861328 18.644531 C 17.816037 18.699507 17.769241 18.753089 17.724609 18.808594 C 17.686721 18.854648 17.646801 18.898887 17.609375 18.945312 C 17.563151 19.001333 17.514289 19.054758 17.46875 19.111328 C 17.424347 19.165193 17.377755 19.217111 17.333984 19.271484 C 17.286294 19.329317 17.236413 19.384941 17.189453 19.443359 C 17.148313 19.493297 17.10505 19.541422 17.064453 19.591797 C 17.014418 19.652351 16.961344 19.710286 16.912109 19.771484 C 16.86503 19.828532 16.8159 19.883787 16.769531 19.941406 C 16.721265 19.999856 16.670567 20.056185 16.623047 20.115234 C 16.575063 20.173322 16.523809 20.228429 16.476562 20.287109 C 16.42406 20.350598 16.369981 20.412365 16.318359 20.476562 C 16.267993 20.537518 16.215571 20.596595 16.166016 20.658203 C 16.111221 20.724476 16.053834 20.788424 16 20.855469 C 15.955557 20.909289 15.909045 20.961296 15.865234 21.015625 C 15.8056 21.087514 15.742097 21.155715 15.683594 21.228516 C 15.629962 21.293351 15.574197 21.3563 15.521484 21.421875 C 15.466662 21.488109 15.409332 21.552135 15.355469 21.619141 C 15.302078 21.683623 15.245841 21.745332 15.193359 21.810547 C 15.131978 21.884555 15.067996 21.956276 15.007812 22.03125 C 14.952055 22.098634 14.894609 22.16424 14.839844 22.232422 C 14.786765 22.296488 14.729916 22.357085 14.677734 22.421875 C 14.610885 22.502309 14.541993 22.580532 14.476562 22.662109 C 14.421688 22.728385 14.364462 22.792326 14.310547 22.859375 C 14.247882 22.934834 14.182511 23.00752 14.121094 23.083984 C 14.059432 23.158284 13.994047 23.229413 13.933594 23.304688 C 13.873316 23.377306 13.811076 23.447935 13.751953 23.521484 C 13.685146 23.601845 13.616172 23.680217 13.550781 23.761719 C 13.487886 23.837505 13.422966 23.911482 13.361328 23.988281 C 13.301712 24.060049 13.238175 24.128494 13.179688 24.201172 C 13.109859 24.28497 13.037036 24.36613 12.96875 24.451172 C 12.9037 24.529393 12.835193 24.604291 12.771484 24.683594 C 12.701895 24.767181 12.630556 24.84877 12.5625 24.933594 C 12.495078 25.014645 12.425356 25.093569 12.359375 25.175781 C 12.291086 25.257823 12.219156 25.336689 12.152344 25.419922 C 12.084314 25.501613 12.013831 25.581189 11.947266 25.664062 C 11.876821 25.748549 11.803252 25.830263 11.734375 25.916016 C 11.660591 26.004476 11.583783 26.089839 11.511719 26.179688 C 11.439806 26.265988 11.365199 26.34988 11.294922 26.4375 C 11.223274 26.523453 11.14815 26.606097 11.078125 26.693359 C 11.004919 26.781085 10.928937 26.865987 10.857422 26.955078 C 10.780004 27.047794 10.700528 27.13818 10.625 27.232422 C 10.550298 27.321983 10.47333 27.409016 10.400391 27.5 C 10.326001 27.589132 10.248425 27.675083 10.175781 27.765625 C 10.098713 27.85784 10.018558 27.94729 9.9433594 28.041016 C 9.8635257 28.136506 9.7809523 28.229061 9.703125 28.326172 C 9.6249046 28.419794 9.5430895 28.51029 9.4667969 28.605469 C 9.3888359 28.698736 9.3084694 28.789952 9.2324219 28.884766 C 9.1526166 28.980121 9.0699914 29.072948 8.9921875 29.169922 C 8.9117596 29.265961 8.8283971 29.359349 8.75 29.457031 C 8.6650987 29.55835 8.57678 29.656618 8.4941406 29.759766 C 8.4128299 29.856919 8.3292327 29.951948 8.25 30.050781 C 8.1654334 30.1517 8.0764633 30.248829 7.9941406 30.351562 C 7.9079765 30.45443 7.8201605 30.555404 7.7363281 30.660156 C 7.6565188 30.755487 7.5739024 30.848365 7.4960938 30.945312 C 7.4060387 31.052531 7.3121279 31.156354 7.2246094 31.265625 C 7.1396996 31.366905 7.0513993 31.46525 6.96875 31.568359 C 6.8807572 31.67317 6.790648 31.776041 6.7050781 31.882812 C 6.614039 31.991231 6.520086 32.096514 6.4316406 32.207031 C 6.3466921 32.308295 6.2584696 32.406672 6.1757812 32.509766 C 6.0786903 32.625193 5.9789127 32.737659 5.8847656 32.855469 C 5.7980324 32.958924 5.709374 33.060652 5.625 33.166016 C 5.5315493 33.277203 5.4344711 33.384651 5.34375 33.498047 C 5.2560679 33.602422 5.165357 33.704224 5.0800781 33.810547 C 4.9823882 33.926493 4.8818271 34.039848 4.7871094 34.158203 C 4.6901803 34.273448 4.5900884 34.386287 4.4960938 34.503906 C 4.4093326 34.607186 4.3187835 34.707314 4.234375 34.8125 C 4.1311126 34.934844 4.0257301 35.054657 3.9257812 35.179688 C 3.8313748 35.291924 3.7342023 35.401136 3.6425781 35.515625 C 3.5443004 35.632269 3.4429258 35.746153 3.3476562 35.865234 C 3.2500451 35.981091 3.1493311 36.094628 3.0546875 36.212891 C 2.9535861 36.332806 2.8498733 36.449773 2.7519531 36.572266 C 2.6533396 36.689308 2.5526158 36.804332 2.4570312 36.923828 C 2.3548012 37.045013 2.2493707 37.16329 2.1503906 37.287109 C 2.0519961 37.403814 1.950851 37.517572 1.8554688 37.636719 C 1.7489302 37.762794 1.6401264 37.886693 1.5371094 38.015625 C 1.4375683 38.133622 1.3347422 38.248645 1.2382812 38.369141 C 1.1279115 38.499675 1.0147952 38.628122 0.90820312 38.761719 C 0.80813788 38.88041 0.7043709 38.99597 0.60742188 39.117188 C 0.50299173 39.240709 0.39597207 39.362015 0.29492188 39.488281 C 0.18473978 39.618446 0.071268297 39.745692 -0.03515625 39.878906 C -0.13897472 40.001743 -0.2452266 40.122497 -0.34570312 40.248047 C -0.45965801 40.382578 -0.57560871 40.514553 -0.68554688 40.652344 C -0.79023513 40.77623 -0.89871125 40.896793 -1 41.023438 C -1.1099474 41.153222 -1.2219141 41.281242 -1.328125 41.414062 C -1.4408666 41.547079 -1.557201 41.676293 -1.6660156 41.8125 C -1.7771632 41.943702 -1.8907184 42.072727 -1.9980469 42.207031 C -2.1110121 42.340297 -2.2269142 42.470954 -2.3359375 42.607422 C -2.4520414 42.744383 -2.5697021 42.879189 -2.6816406 43.019531 C -2.7940309 43.152256 -2.9090963 43.282071 -3.0175781 43.417969 C -3.1314946 43.552315 -3.2475124 43.684664 -3.3574219 43.822266 C -3.4725924 43.957965 -3.5900914 44.091445 -3.7011719 44.230469 C -3.8166237 44.366415 -3.9355291 44.499385 -4.046875 44.638672 C -4.1693358 44.782714 -4.2942639 44.924472 -4.4121094 45.072266 C -4.5279038 45.208777 -4.6461567 45.342549 -4.7578125 45.482422 C -4.8747992 45.62011 -4.9946484 45.755368 -5.1074219 45.896484 C -5.2320867 46.042982 -5.3586276 46.187508 -5.4785156 46.337891 C -5.5955071 46.47565 -5.7153505 46.610765 -5.828125 46.751953 C -5.9562115 46.902418 -6.0859398 47.050516 -6.2089844 47.205078 C -6.3220263 47.338269 -6.4377722 47.469073 -6.546875 47.605469 C -6.6779878 47.75914 -6.8116521 47.910403 -6.9375 48.068359 C -7.0563311 48.208132 -7.1784813 48.344974 -7.2929688 48.488281 C -7.4204679 48.637784 -7.549356 48.785894 -7.671875 48.939453 C -7.8017172 49.091847 -7.933926 49.241835 -8.0585938 49.398438 C -8.1807687 49.542054 -8.306242 49.682728 -8.4238281 49.830078 C -8.5498051 49.977796 -8.6777121 50.123712 -8.7988281 50.275391 C -8.935151 50.435043 -9.0724902 50.593533 -9.203125 50.757812 C -9.3273851 50.903881 -9.4547066 51.047337 -9.5742188 51.197266 C -9.6992991 51.343887 -9.8269741 51.488146 -9.9472656 51.638672 C -10.085193 51.799878 -10.225299 51.959064 -10.357422 52.125 C -10.485488 52.275168 -10.61524 52.423865 -10.738281 52.578125 C -10.872359 52.734993 -11.008133 52.889438 -11.136719 53.050781 C -11.268502 53.205022 -11.402821 53.357059 -11.529297 53.515625 C -11.669365 53.679359 -11.811235 53.841155 -11.945312 54.009766 C -12.075025 54.161785 -12.207471 54.310582 -12.332031 54.466797 C -12.471302 54.629513 -12.612738 54.789494 -12.746094 54.957031 C -12.882282 55.116343 -13.019868 55.273573 -13.150391 55.4375 C -13.285112 55.594998 -13.421597 55.750095 -13.550781 55.912109 C -13.694866 56.080226 -13.840752 56.246653 -13.978516 56.419922 C -14.115268 56.579893 -14.253726 56.737719 -14.384766 56.902344 C -14.521531 57.062067 -14.659949 57.220393 -14.791016 57.384766 C -14.937818 57.555851 -15.086313 57.725916 -15.226562 57.902344 C -15.362993 58.061751 -15.502058 58.218777 -15.632812 58.382812 C -15.774919 58.548336 -15.918712 58.712281 -16.054688 58.882812 C -16.201097 59.053245 -16.348375 59.222694 -16.488281 59.398438 C -16.635795 59.570341 -16.784883 59.74067 -16.925781 59.917969 C -17.066531 60.082194 -17.209029 60.24492 -17.34375 60.414062 C -17.488661 60.582698 -17.634893 60.74999 -17.773438 60.923828 C -17.923537 61.09834 -18.075475 61.271085 -18.21875 61.451172 C -18.367283 61.624076 -18.516366 61.796241 -18.658203 61.974609 C -18.804388 62.144796 -18.952097 62.312799 -19.091797 62.488281 C -19.241927 62.662775 -19.393804 62.835555 -19.537109 63.015625 C -19.688911 63.19205 -19.841504 63.366704 -19.986328 63.548828 C -20.138552 63.72581 -20.292297 63.90127 -20.4375 64.083984 C -20.586745 64.257545 -20.738363 64.428348 -20.880859 64.607422 C -21.034473 64.785741 -21.187504 64.964287 -21.333984 65.148438 C -21.489485 65.328939 -21.646731 65.506885 -21.794922 65.693359 C -21.948764 65.872029 -22.103317 66.049856 -22.25 66.234375 C -22.40413 66.413268 -22.560081 66.590628 -22.707031 66.775391 C -22.862216 66.955313 -23.018096 67.134445 -23.166016 67.320312 C -23.324276 67.503631 -23.484053 67.685505 -23.634766 67.875 C -23.795953 68.061753 -23.956023 68.248248 -24.109375 68.441406 C -24.26494 68.621871 -24.422056 68.799887 -24.570312 68.986328 C -24.734089 69.17592 -24.89899 69.364348 -25.054688 69.560547 C -25.211937 69.742919 -25.369748 69.924806 -25.519531 70.113281 C -25.67951 70.298462 -25.839913 70.482339 -25.992188 70.673828 C -26.160173 70.868038 -26.328783 71.060567 -26.488281 71.261719 C -26.646787 71.445434 -26.806105 71.628446 -26.957031 71.818359 C -27.119742 72.006454 -27.282746 72.19406 -27.4375 72.388672 C -28.690917 73.836295 -29.722349 75.474468 -30.4375 77.25 C -33.08541 83.565731 -31.581583 91.370211 -26.810547 96.279297 L -26.808594 96.279297 C -25.958179 97.164631 -24.979903 97.920359 -24.074219 98.724609 C -23.419732 98.883075 -23.06455 98.541385 -22.800781 98.052734 C -22.598667 97.928608 -22.4471 97.719937 -22.316406 97.478516 C -22.113966 97.354191 -21.962859 97.146229 -21.832031 96.904297 C -21.631843 96.780044 -21.481412 96.57375 -21.351562 96.333984 C -21.153677 96.210578 -21.003868 96.008237 -20.875 95.771484 C -20.676897 95.648249 -20.527408 95.443805 -20.398438 95.207031 C -20.202394 95.084065 -20.053852 94.881084 -19.925781 94.646484 C -19.730129 94.523639 -19.582979 94.322005 -19.455078 94.087891 C -19.261419 93.965638 -19.113363 93.76683 -18.986328 93.535156 C -18.793779 93.413116 -18.64803 93.212863 -18.521484 92.982422 C -18.329869 92.860683 -18.184731 92.662873 -18.058594 92.433594 C -18.031906 92.416597 -18.005536 92.400537 -17.980469 92.380859 C -19.490319 96.947462 -21.95322 101.1899 -24.763672 105.10938 C -24.8406 105.1987 -24.921791 105.28522 -24.998047 105.375 C -25.000657 105.38294 -24.996397 105.38879 -24.998047 105.39648 C -25.145458 105.56579 -25.298246 105.73149 -25.443359 105.90234 C -25.445945 105.91021 -25.441767 105.91622 -25.443359 105.92383 C -25.591641 106.09415 -25.744645 106.26172 -25.890625 106.43359 C -25.893225 106.44151 -25.889087 106.44745 -25.890625 106.45508 C -26.039655 106.62628 -26.193115 106.79404 -26.339844 106.9668 C -26.342414 106.97462 -26.338375 106.98075 -26.339844 106.98828 C -26.489957 107.16074 -26.645167 107.32989 -26.792969 107.50391 C -26.795552 107.51177 -26.791571 107.51784 -26.792969 107.52539 C -26.943653 107.69853 -27.099668 107.86827 -27.248047 108.04297 C -27.250881 108.0516 -27.246735 108.05818 -27.248047 108.06641 C -27.399211 108.24012 -27.556213 108.41067 -27.705078 108.58594 C -27.707692 108.59389 -27.703863 108.59984 -27.705078 108.60742 C -27.857346 108.78242 -28.014104 108.9543 -28.164062 109.13086 C -28.166867 109.1394 -28.162998 109.14622 -28.164062 109.1543 C -28.317025 109.33012 -28.476298 109.50231 -28.626953 109.67969 C -28.629771 109.68826 -28.626049 109.69507 -28.626953 109.70312 C -28.780324 109.87945 -28.93877 110.0526 -29.089844 110.23047 C -29.091885 110.23668 -29.085021 110.24018 -29.085938 110.24609 C -29.24208 110.42557 -29.402853 110.60214 -29.556641 110.7832 C -29.558651 110.78932 -29.551942 110.79304 -29.552734 110.79883 C -29.710022 110.97963 -29.872421 111.15744 -30.027344 111.33984 C -30.02964 111.34684 -30.02097 111.35091 -30.021484 111.35742 C -30.179391 111.53896 -30.342502 111.71726 -30.498047 111.90039 C -30.500395 111.90754 -30.491976 111.91139 -30.492188 111.91797 C -30.650932 112.10049 -30.816276 112.27877 -30.972656 112.46289 C -30.974763 112.4693 -30.966735 112.47265 -30.966797 112.47852 C -31.126514 112.66217 -31.291872 112.84209 -31.449219 113.02734 C -31.45148 113.03423 -31.443938 113.0388 -31.443359 113.04492 C -31.603731 113.22935 -31.769729 113.40967 -31.927734 113.5957 C -31.92968 113.60163 -31.920711 113.60418 -31.919922 113.60938 C -32.082319 113.79613 -32.250161 113.9796 -32.410156 114.16797 C -32.41195 114.1734 -32.40379 114.17514 -32.402344 114.17969 C -32.565412 114.36723 -32.733863 114.55107 -32.894531 114.74023 C -32.896636 114.74671 -32.891021 114.75133 -32.886719 114.75586 C -33.050283 114.944 -33.219687 115.1286 -33.380859 115.31836 C -33.756758 116.46493 -32.366732 117.14928 -31.779297 117.9082 L -31.777344 117.9082 C -31.252278 118.13929 -30.712283 119.49767 -30.210938 118.97656 L -30.210938 118.97461 C -28.509646 117.1415 -26.786548 115.32572 -25.164062 113.42188 C -24.994981 113.22781 -24.832965 113.02794 -24.666016 112.83203 C -24.514198 112.65779 -24.368842 112.47652 -24.21875 112.30078 C -21.632317 112.29378 -19.045417 112.28795 -16.458984 112.28125 L -16.458984 112.2832 L -16.458984 119.97852 L -11.619141 119.97852 L -11.619141 119.40234 L -11.132812 119.40234 L -11.132812 119.32422 L -11.132812 118.82812 L -10.648438 118.82812 L -10.648438 118.67578 L -10.648438 118.25781 L -10.167969 118.25781 L -10.167969 118.0293 L -10.167969 117.68945 L -9.6894531 117.68945 L -9.6894531 117.38477 L -9.6894531 117.12305 L -9.2128906 117.12305 L -9.2128906 116.74414 L -9.2128906 116.5625 L -8.7382812 116.5625 L -8.7382812 116.10742 L -8.7382812 116.00195 L -8.265625 116.00195 L -8.265625 115.47461 L -8.265625 115.44531 L -7.796875 115.44531 L -7.796875 114.89062 L -7.3300781 114.89062 L -7.3300781 114.33984 L -6.8652344 114.33984 L -6.8652344 113.79297 L -6.4023438 113.79297 L -6.4023438 113.24805 L -5.9433594 113.24805 L -5.9433594 112.70508 L -5.4863281 112.70508 L -5.4863281 112.29688 C -4.9434141 112.29825 -4.4003372 112.29938 -3.8574219 112.30078 L -3.8574219 112.30273 C -1.9037465 114.72166 0.25984373 116.959 2.3710938 119.23828 C 3.1583325 118.24316 4.2940664 117.51682 5.0195312 116.47656 C 5.1934689 116.28796 5.3655986 116.09855 5.5117188 115.88867 C 5.6823869 115.70356 5.8524483 115.51828 5.9960938 115.3125 C 6.1685328 115.12601 6.3396464 114.93815 6.484375 114.73047 C 6.6567544 114.54399 6.828341 114.35637 6.9726562 114.14844 C 7.140969 113.96617 7.3079484 113.78302 7.4492188 113.58008 C 7.6183881 113.39741 7.7859856 113.2134 7.9277344 113.00977 C 8.0954673 112.8288 8.261774 112.64705 8.4023438 112.44531 C 8.5720744 112.26255 8.7391842 112.07726 8.8808594 111.87305 C 9.0486645 111.6921 9.215509 111.51083 9.3554688 111.30859 C 9.5184916 111.13269 9.6798831 110.95593 9.8164062 110.75977 C 9.9835259 110.58027 10.147907 110.39811 10.287109 110.19727 C 10.451249 110.02075 10.613151 109.84387 10.75 109.64648 C 10.913735 109.4707 11.074538 109.29239 11.210938 109.0957 C 11.37575 108.91891 11.538997 108.7412 11.675781 108.54297 C 11.836152 108.37065 11.995413 108.19678 12.128906 108.00391 C 12.292039 107.82914 12.452763 107.65321 12.587891 107.45703 C 12.746849 107.28649 12.903119 107.11299 13.035156 106.92188 C 13.195407 106.75038 13.353609 106.5773 13.486328 106.38477 C 13.645887 106.21407 13.803604 106.04142 13.935547 105.84961 C 14.093123 105.681 14.24857 105.5117 14.378906 105.32227 C 14.537393 105.15299 14.693529 104.98154 14.824219 104.79102 C 14.977457 104.62718 15.128847 104.46124 15.255859 104.27734 C 15.413641 104.10949 15.569333 103.93918 15.699219 103.75 C 15.855884 103.58301 16.01005 103.41304 16.138672 103.22461 C 16.29218 103.0607 16.444145 102.89575 16.570312 102.71094 C 16.720549 102.55076 16.868227 102.38926 16.992188 102.20898 C 17.148028 102.0437 17.300308 101.87647 17.427734 101.68945 C 17.579012 101.52843 17.7276 101.36551 17.851562 101.18359 C 18.002002 101.02371 18.150213 100.86234 18.273438 100.68164 C 18.423096 100.5228 18.568909 100.36125 18.691406 100.18164 C 18.841476 100.02262 18.988834 99.861747 19.111328 99.681641 C 19.260806 99.523235 19.40757 99.36322 19.529297 99.183594 C 19.674019 99.030064 19.817105 98.874797 19.935547 98.701172 C 20.084189 98.544256 20.228809 98.383282 20.349609 98.205078 C 20.495466 98.050865 20.639193 97.895742 20.757812 97.720703 C 20.901611 97.568818 21.043038 97.414471 21.160156 97.242188 C 21.304992 97.089668 21.444898 96.933108 21.5625 96.759766 C 21.706692 96.608001 21.847985 96.453913 21.964844 96.28125 C 22.108942 96.129626 22.248836 95.975538 22.365234 95.802734 C 22.507289 95.653145 22.646984 95.502511 22.761719 95.332031 C 22.901877 95.184559 23.039023 95.035179 23.152344 94.867188 C 23.291402 94.721228 23.426544 94.5725 23.539062 94.40625 C 23.679081 94.25984 23.814724 94.110419 23.927734 93.943359 C 24.068287 93.796483 24.205439 93.646519 24.318359 93.478516 C 24.456454 93.333949 24.590242 93.186821 24.701172 93.021484 C 24.838424 92.87797 24.971892 92.730651 25.082031 92.566406 C 25.217508 92.424843 25.348245 92.281111 25.457031 92.119141 C 25.593911 91.976526 25.726545 91.8316 25.835938 91.667969 C 25.972054 91.526089 26.104426 91.381772 26.212891 91.21875 C 26.346525 91.079235 26.477481 90.937603 26.583984 90.777344 C 26.716291 90.639357 26.845736 90.498376 26.951172 90.339844 C 27.082485 90.203152 27.209815 90.063337 27.314453 89.90625 C 27.429896 89.786451 27.535344 89.658469 27.630859 89.523438 C 27.762133 89.39106 27.881144 89.248479 27.988281 89.097656 C 28.12285 88.962524 28.244506 88.816775 28.353516 88.662109 C 28.482874 88.531805 28.599794 88.39089 28.705078 88.242188 C 28.836526 88.110321 28.956039 87.969321 29.0625 87.818359 C 29.193499 87.686907 29.312264 87.545315 29.417969 87.394531 C 29.545304 87.266625 29.660564 87.128844 29.763672 86.982422 C 29.891841 86.85411 30.007846 86.715539 30.111328 86.568359 C 30.238667 86.440991 30.352423 86.304436 30.455078 86.158203 C 30.5808 86.032648 30.695392 85.897985 30.796875 85.753906 C 30.923819 85.627363 31.036804 85.489457 31.138672 85.34375 C 31.261539 85.221082 31.371687 85.088161 31.470703 84.947266 C 31.595311 84.823444 31.706625 84.68949 31.806641 84.546875 C 31.92864 84.425673 32.038557 84.295669 32.136719 84.15625 C 32.198613 84.094951 32.257527 84.031888 32.314453 83.966797 C 32.315909 83.964955 32.316907 83.962783 32.318359 83.960938 C 32.369441 83.902242 32.413878 83.838655 32.458984 83.775391 C 32.526321 83.702065 32.599371 83.633021 32.660156 83.554688 C 32.704369 83.503173 32.743647 83.447654 32.783203 83.392578 C 32.853759 83.315797 32.928772 83.242396 32.992188 83.160156 C 33.031517 83.114101 33.065984 83.064548 33.101562 83.015625 C 33.180664 82.92977 33.263842 82.846611 33.333984 82.753906 C 33.362339 82.719972 33.387752 82.683935 33.414062 82.648438 C 33.503074 82.552379 33.594091 82.458158 33.671875 82.353516 C 33.691687 82.329322 33.707797 82.302338 33.726562 82.277344 C 33.820082 82.176654 33.914839 82.076862 33.996094 81.966797 C 34.010492 81.949075 34.023276 81.930263 34.037109 81.912109 C 34.137876 81.803987 34.239521 81.69704 34.326172 81.578125 C 34.332272 81.570487 34.337755 81.562405 34.34375 81.554688 C 34.347841 81.548955 34.351419 81.542873 34.355469 81.537109 C 34.461758 81.422652 34.567828 81.308266 34.658203 81.181641 C 34.771691 81.06002 34.884869 80.938033 34.980469 80.802734 C 35.087055 80.687449 35.192509 80.570796 35.283203 80.443359 C 35.392101 80.325663 35.501288 80.208389 35.59375 80.078125 C 35.698933 79.963892 35.804657 79.850548 35.894531 79.724609 C 36.001233 79.608727 36.108147 79.493069 36.199219 79.365234 C 36.301619 79.253517 36.404134 79.142218 36.492188 79.019531 C 36.594208 78.908357 36.697159 78.797678 36.785156 78.675781 C 36.890665 78.56081 36.997329 78.446714 37.087891 78.320312 C 37.188607 78.209723 37.289951 78.099592 37.376953 77.978516 C 37.475073 77.870665 37.574905 77.764176 37.660156 77.646484 C 37.759336 77.537665 37.859102 77.429283 37.945312 77.310547 C 38.045904 77.200003 38.147107 77.089482 38.234375 76.96875 C 38.33062 76.862363 38.429651 76.758313 38.513672 76.642578 C 38.611151 76.534765 38.709923 76.427903 38.794922 76.310547 C 38.889825 76.20517 38.985278 76.100745 39.068359 75.986328 C 39.161864 75.882367 39.257735 75.780644 39.339844 75.667969 C 39.432654 75.564745 39.527695 75.463297 39.609375 75.351562 C 39.702189 75.248243 39.797163 75.146942 39.878906 75.035156 C 39.972369 74.93081 40.068183 74.827797 40.150391 74.714844 C 40.237349 74.617245 40.327057 74.521047 40.404297 74.416016 C 40.494375 74.315291 40.586215 74.216005 40.666016 74.107422 C 40.754346 74.008406 40.845353 73.911239 40.923828 73.804688 C 41.013056 73.70449 41.104419 73.605932 41.183594 73.498047 C 41.26921 73.401438 41.357252 73.306825 41.433594 73.203125 C 41.519335 73.106419 41.607073 73.011959 41.683594 72.908203 C 41.766995 72.813961 41.853011 72.721972 41.927734 72.621094 C 42.012281 72.525602 42.100093 72.432344 42.175781 72.330078 C 42.259592 72.235143 42.34678 72.142615 42.421875 72.041016 C 42.503663 71.94803 42.588633 71.857155 42.662109 71.757812 C 42.740877 71.668114 42.821469 71.579931 42.892578 71.484375 C 42.973785 71.392092 43.059671 71.30353 43.132812 71.205078 C 43.213229 71.113314 43.296677 71.023627 43.369141 70.925781 C 43.444818 70.839087 43.523149 70.754179 43.591797 70.662109 C 43.670054 70.572664 43.751457 70.485766 43.822266 70.390625 C 43.897578 70.304234 43.97651 70.220575 44.044922 70.128906 C 44.08197 70.086421 44.117155 70.042461 44.154297 70 L 0 70 L 0 66 C 0.667 68 2 69 4 69 L 45.003906 69 C 45.047118 68.951183 45.091865 68.903556 45.130859 68.851562 C 45.2019 68.769494 45.276779 68.690191 45.341797 68.603516 C 45.411615 68.522671 45.484827 68.444668 45.548828 68.359375 C 45.616393 68.281021 45.687859 68.205549 45.75 68.123047 C 45.819714 68.04225 45.893072 67.964104 45.957031 67.878906 C 46.023838 67.801128 46.094751 67.726368 46.15625 67.644531 C 46.220328 67.569828 46.288435 67.49834 46.347656 67.419922 C 46.412987 67.343902 46.482644 67.271254 46.542969 67.191406 C 46.609495 67.113882 46.678907 67.038531 46.740234 66.957031 C 46.801991 66.884695 46.86852 66.816008 46.925781 66.740234 C 46.988514 66.66685 47.055154 66.596439 47.113281 66.519531 C 47.173004 66.44951 47.235459 66.381801 47.291016 66.308594 C 47.354379 66.234466 47.421769 66.16363 47.480469 66.085938 C 47.539701 66.016256 47.603071 65.949769 47.658203 65.876953 C 47.716223 65.808622 47.777935 65.743206 47.832031 65.671875 C 47.889108 65.604694 47.950598 65.540766 48.003906 65.470703 C 48.064026 65.399934 48.127659 65.331782 48.183594 65.257812 C 48.235407 65.196426 48.291147 65.13799 48.339844 65.074219 C 48.396979 65.006933 48.458321 64.943191 48.511719 64.873047 C 48.566872 64.807811 48.626085 64.745651 48.677734 64.677734 C 48.731623 64.613848 48.789305 64.552776 48.839844 64.486328 C 48.890732 64.42586 48.944282 64.367436 48.992188 64.304688 C 49.044555 64.2426 49.101157 64.183624 49.150391 64.119141 C 49.201831 64.058019 49.258229 64.000938 49.306641 63.9375 C 49.35493 63.879967 49.407504 63.825199 49.453125 63.765625 C 49.502753 63.70661 49.556687 63.650999 49.603516 63.589844 C 49.653935 63.529752 49.708342 63.472467 49.755859 63.410156 C 49.799617 63.357732 49.847105 63.308006 49.888672 63.253906 C 49.937332 63.195895 49.989177 63.14014 50.035156 63.080078 C 50.079504 63.026952 50.127811 62.976712 50.169922 62.921875 C 50.216973 62.86556 50.267963 62.812144 50.3125 62.753906 C 50.354653 62.70319 50.401282 62.655784 50.441406 62.603516 C 50.484865 62.551306 50.530952 62.501116 50.572266 62.447266 C 50.61269 62.398617 50.65674 62.352799 50.695312 62.302734 C 50.738999 62.250257 50.786593 62.20061 50.828125 62.146484 C 50.867293 62.099189 50.90984 62.054488 50.947266 62.005859 C 50.984931 61.96042 51.026435 61.917756 51.0625 61.871094 C 51.103449 61.821787 51.148435 61.775357 51.1875 61.724609 C 51.223913 61.680537 51.263914 61.638969 51.298828 61.59375 C 51.336238 61.548517 51.376276 61.505422 51.412109 61.458984 C 51.450046 61.413037 51.491033 61.369457 51.527344 61.322266 C 51.559566 61.283075 51.595906 61.24712 51.626953 61.207031 C 51.663109 61.163212 51.701642 61.121115 51.736328 61.076172 C 51.767034 61.038819 51.802386 61.004961 51.832031 60.966797 C 51.866666 60.924813 51.904206 60.884806 51.9375 60.841797 C 51.969476 60.802858 52.004331 60.766383 52.035156 60.726562 C 52.065022 60.690151 52.098089 60.656319 52.126953 60.619141 C 52.159488 60.579513 52.195217 60.542489 52.226562 60.501953 C 52.254576 60.467656 52.285374 60.435366 52.3125 60.400391 C 52.339074 60.367886 52.36875 60.337797 52.394531 60.304688 C 52.424337 60.268301 52.457516 60.234413 52.486328 60.197266 C 52.513148 60.164358 52.542351 60.133138 52.568359 60.099609 C 52.591071 60.071712 52.61654 60.045919 52.638672 60.017578 C 52.667636 59.982145 52.698538 59.94826 52.726562 59.912109 C 52.747764 59.885972 52.772275 59.862464 52.792969 59.835938 C 52.818678 59.804386 52.846125 59.774306 52.871094 59.742188 C 52.89171 59.716743 52.91541 59.69378 52.935547 59.667969 C 52.95798 59.640352 52.982038 59.613987 53.003906 59.585938 C 53.02302 59.562345 53.04575 59.541484 53.064453 59.517578 C 53.086511 59.490394 53.1113 59.465101 53.132812 59.4375 C 53.150816 59.415221 53.169862 59.393652 53.1875 59.371094 C 53.205792 59.348469 53.226225 59.3276 53.244141 59.304688 C 53.262072 59.282485 53.283213 59.262713 53.300781 59.240234 C 53.316137 59.221192 53.332566 59.202839 53.347656 59.183594 C 53.363881 59.163503 53.382507 59.145317 53.398438 59.125 C 53.414064 59.105611 53.431914 59.087959 53.447266 59.068359 C 53.461726 59.05038 53.477963 59.033785 53.492188 59.015625 C 53.505485 58.999058 53.520107 58.983517 53.533203 58.966797 C 53.54445 58.952769 53.557256 58.939919 53.568359 58.925781 C 53.580186 58.911046 53.5938 58.897669 53.605469 58.882812 C 53.616703 58.8688 53.629533 58.855919 53.640625 58.841797 C 53.651034 58.828787 53.661589 58.815839 53.671875 58.802734 C 53.679619 58.79304 53.68959 58.785137 53.697266 58.775391 C 53.707926 58.762066 53.719937 58.749751 53.730469 58.736328 C 53.736195 58.729134 53.742358 58.720113 53.748047 58.712891 C 53.74976 58.710742 53.752196 58.709183 53.753906 58.707031 C 53.756773 58.703463 53.760814 58.700841 53.763672 58.697266 L 53.765625 58.695312 C 53.773981 58.684847 53.782739 58.674589 53.791016 58.664062 C 53.794189 58.660066 53.797619 58.65635 53.800781 58.652344 C 53.805906 58.645909 53.813265 58.641223 53.818359 58.634766 C 53.82239 58.629691 53.826066 58.62423 53.830078 58.619141 C 53.831201 58.617716 53.832863 58.61666 53.833984 58.615234 C 53.835102 58.613821 53.836775 58.61079 53.837891 58.609375 L 53.839844 58.607422 C 53.840964 58.606005 53.842631 58.604934 53.84375 58.603516 C 53.84375 58.603516 53.845703 58.601562 53.845703 58.601562 C 53.917822 58.510335 53.979399 58.410728 54.044922 58.314453 C 54.074057 58.271588 54.10711 58.231497 54.134766 58.1875 C 54.147782 58.166822 54.163108 58.147894 54.175781 58.126953 C 54.176527 58.125716 54.17699 58.124285 54.177734 58.123047 C 54.177734 58.123047 54.179688 58.121094 54.179688 58.121094 C 54.179688 58.121094 54.179688 58.119141 54.179688 58.119141 C 54.280017 57.952549 54.36983 57.777419 54.445312 57.591797 C 54.445312 57.591797 54.447266 57.589844 54.447266 57.589844 C 54.179415 56.951359 53.765464 56.42171 53.298828 55.931641 C 52.831517 55.440863 52.310542 54.990849 51.822266 54.513672 C 51.497344 54.196137 51.186345 53.867279 50.917969 53.505859 C 50.917969 53.505859 50.917969 53.503906 50.917969 53.503906 C 50.267168 52.783527 49.625776 52.051321 48.998047 51.306641 C 48.998047 51.306641 48.998047 51.304688 48.998047 51.304688 C 47.114297 49.069895 45.347052 46.724813 43.775391 44.261719 C 43.775391 44.261719 43.775391 44.259766 43.775391 44.259766 C 43.59737 43.980756 43.43657 43.692196 43.263672 43.410156 C 43.269028 43.403768 43.273948 43.39702 43.279297 43.390625 C 43.327113 43.334823 43.374671 43.278969 43.421875 43.222656 C 43.473613 43.162385 43.525148 43.101883 43.576172 43.041016 C 43.632763 42.975073 43.688405 42.908453 43.744141 42.841797 C 43.791047 42.786982 43.836496 42.731088 43.882812 42.675781 C 43.933067 42.617117 43.981672 42.557274 44.03125 42.498047 C 44.075144 42.446773 44.118732 42.395455 44.162109 42.34375 C 44.216016 42.280892 44.269136 42.217803 44.322266 42.154297 C 44.364328 42.105095 44.405678 42.055458 44.447266 42.005859 C 44.494227 41.951026 44.539566 41.89517 44.585938 41.839844 C 44.627083 41.791766 44.668292 41.743769 44.708984 41.695312 C 44.759525 41.636347 44.809518 41.577113 44.859375 41.517578 C 44.898135 41.472215 44.936253 41.426559 44.974609 41.380859 C 45.018242 41.329885 45.060394 41.277963 45.103516 41.226562 C 45.141386 41.182289 45.179311 41.138345 45.216797 41.09375 C 45.257957 41.045703 45.299137 40.997644 45.339844 40.949219 C 45.386809 40.89438 45.432142 40.838534 45.478516 40.783203 C 45.51394 40.741703 45.548898 40.699984 45.583984 40.658203 C 45.618511 40.617816 45.653293 40.577763 45.6875 40.537109 C 45.731144 40.486135 45.773273 40.434213 45.816406 40.382812 C 45.854209 40.338527 45.89227 40.294606 45.929688 40.25 C 45.961525 40.212677 45.991873 40.174269 46.023438 40.136719 C 46.054398 40.100484 46.084531 40.063794 46.115234 40.027344 C 46.154857 39.981046 46.195173 39.935321 46.234375 39.888672 C 46.265276 39.852476 46.295528 39.815707 46.326172 39.779297 C 46.359493 39.740299 46.392758 39.701356 46.425781 39.662109 C 46.458203 39.624143 46.489345 39.585077 46.521484 39.546875 C 46.5542 39.508548 46.586712 39.470208 46.619141 39.431641 C 46.644032 39.402448 46.668635 39.373082 46.693359 39.34375 C 46.725168 39.306532 46.757525 39.269866 46.789062 39.232422 C 46.818171 39.198318 46.846121 39.1632 46.875 39.128906 C 46.914899 39.082138 46.954671 39.035406 46.994141 38.988281 C 47.000458 38.980833 47.005412 38.972301 47.011719 38.964844 C 47.049256 38.920995 47.08784 38.878149 47.125 38.833984 C 47.146897 38.808268 47.167685 38.781683 47.189453 38.755859 C 47.21496 38.725945 47.240293 38.696076 47.265625 38.666016 C 47.28484 38.643462 47.30315 38.620293 47.322266 38.597656 C 47.351697 38.563177 47.380958 38.528814 47.410156 38.494141 C 47.428429 38.472666 47.446661 38.451237 47.464844 38.429688 C 47.487352 38.403275 47.508878 38.376135 47.53125 38.349609 C 47.546499 38.331698 47.562939 38.314839 47.578125 38.296875 C 47.604521 38.26594 47.630042 38.234217 47.65625 38.203125 C 47.671217 38.185526 47.686265 38.168041 47.701172 38.150391 C 47.720041 38.128237 47.739041 38.106218 47.757812 38.083984 C 47.776419 38.062127 47.793987 38.039513 47.8125 38.017578 C 47.834058 37.992228 47.85552 37.966861 47.876953 37.941406 C 47.883534 37.933648 47.889915 37.925737 47.896484 37.917969 C 47.912389 37.89929 47.927522 37.880064 47.943359 37.861328 C 47.963413 37.837761 47.983961 37.814674 48.003906 37.791016 C 48.007197 37.787136 48.010384 37.783179 48.013672 37.779297 C 48.028059 37.76241 48.042309 37.745449 48.056641 37.728516 C 48.074305 37.707756 48.091795 37.686845 48.109375 37.666016 C 48.119839 37.653679 48.130191 37.641267 48.140625 37.628906 C 48.147535 37.62076 48.153259 37.611673 48.160156 37.603516 C 48.162544 37.600714 48.165582 37.598506 48.167969 37.595703 C 48.170338 37.59291 48.173413 37.590685 48.175781 37.587891 C 48.189556 37.571696 48.203074 37.555301 48.216797 37.539062 C 48.22397 37.530606 48.231122 37.522141 48.238281 37.513672 C 48.242494 37.508705 48.247745 37.501064 48.251953 37.496094 L 48.253906 37.494141 L 48.255859 37.492188 L 48.257812 37.490234 C 48.262287 37.484958 48.267015 37.479891 48.271484 37.474609 C 48.27596 37.469333 48.280686 37.464265 48.285156 37.458984 C 48.288426 37.45513 48.291655 37.449169 48.294922 37.445312 L 48.296875 37.443359 C 48.299257 37.440558 48.302306 37.438349 48.304688 37.435547 C 48.306204 37.433759 48.307078 37.431475 48.308594 37.429688 L 48.310547 37.427734 C 48.311732 37.426337 48.313269 37.425225 48.314453 37.423828 C 48.314453 37.423828 48.314453 37.421875 48.314453 37.421875 C 48.448111 37.264299 48.574406 37.100996 48.703125 36.939453 C 48.792517 36.827073 48.885739 36.717752 48.972656 36.603516 C 48.976291 36.598744 48.980745 36.594619 48.984375 36.589844 L 48.986328 36.587891 L 48.988281 36.585938 L 48.988281 36.583984 L 48.990234 36.582031 C 48.991334 36.580583 48.993041 36.579574 48.994141 36.578125 C 48.994141 36.578125 48.994141 36.576172 48.994141 36.576172 C 49.08529 36.456148 49.169472 36.330999 49.257812 36.208984 C 49.379829 36.040457 49.504618 35.873371 49.621094 35.701172 C 49.622101 35.699682 49.623994 35.698756 49.625 35.697266 C 49.625 35.697266 49.626953 35.695312 49.626953 35.695312 C 49.828652 35.396848 50.020888 35.092087 50.205078 34.783203 C 50.205078 34.783203 50.207031 34.78125 50.207031 34.78125 C 50.391344 34.472059 50.566752 34.15871 50.732422 33.839844 C 50.732422 33.839844 50.732422 33.837891 50.732422 33.837891 C 50.830966 33.648178 50.920085 33.45464 51.011719 33.261719 C 51.073294 33.132058 51.138899 33.004096 51.197266 32.873047 C 51.221048 32.819656 51.240431 32.764553 51.263672 32.710938 C 51.333668 32.549441 51.397888 32.386132 51.462891 32.222656 C 51.509707 32.104946 51.563252 31.98979 51.607422 31.871094 C 51.607422 31.871094 51.607422 31.869141 51.607422 31.869141 C 51.649316 31.756523 51.683188 31.64082 51.722656 31.527344 C 51.800867 31.302391 51.880781 31.077766 51.949219 30.849609 C 52.155878 30.161029 52.31795 29.459784 52.429688 28.746094 C 52.538601 28.05043 52.598972 27.342664 52.609375 26.628906 C 52.609623 26.611903 52.611139 26.595137 52.611328 26.578125 C 52.611328 26.578125 52.611328 26.576172 52.611328 26.576172 C 52.650719 25.520552 52.601152 24.460091 52.462891 23.412109 C 52.462891 23.412109 52.462891 23.410156 52.462891 23.410156 C 52.324435 22.361547 52.09701 21.32678 51.779297 20.320312 C 51.143871 18.307378 50.149839 16.412852 48.789062 14.775391 C 48.366028 14.247671 47.909934 13.744513 47.427734 13.267578 C 46.945535 12.790643 46.436045 12.340418 45.902344 11.919922 C 45.368643 11.499426 44.811914 11.108403 44.234375 10.75 C 44.234375 10.75 44.232422 10.75 44.232422 10.75 C 43.655327 10.391947 43.05852 10.065806 42.445312 9.7753906 C 42.445312 9.7753906 42.443359 9.7753906 42.443359 9.7753906 C 41.830156 9.4850519 41.200256 9.228782 40.558594 9.0117188 C 40.238071 8.9032911 39.914085 8.8039325 39.587891 8.7148438 C 39.587891 8.7148438 39.585938 8.7148438 39.585938 8.7148438 C 38.279293 8.3582922 36.929632 8.1586403 35.570312 8.140625 z "
     id="path1637" />
  <path
     style="fill:#5d8367;fill-opacity:0.5;fill-rule:evenodd"
     inkscape:connector-curvature="0"
     id="path830"
     d="m 4,1 h 61 c 2.667,0 4.333,0.667 5,2 V 0 H 0 V 3 C 0.667,1.667 2,1 4,1 Z" />
  <path
     style="fill:#2e4233;fill-opacity:0.50196081;fill-rule:evenodd"
     inkscape:connector-curvature="0"
     id="path834"
     d="m 4,69 h 61 c 2.667,0 4.333,-1 5,-3 v 4 H 0 v -4 c 0.667,2 2,3 4,3 z" />
  <path
     style="fill:#3f3f3f;stroke-width:0.23332678;fill-opacity:1"
     d="m 33.938169,8.7531047 c -6.921868,-0.0782 -13.428789,4.6100073 -15.990253,10.9694463 -2.648244,6.315833 -1.143357,14.119561 3.627825,19.028797 0.85056,0.885614 1.829562,1.642199 2.735467,2.446645 1.491418,0.361636 1.456375,-1.825931 2.2288,-2.60136 0.537871,-0.620941 0.610891,-1.691966 -0.270738,-2.06157 -4.970675,-3.956917 -6.394669,-11.720392 -2.817384,-17.031506 3.131407,-4.991194 9.872286,-7.409343 15.383956,-5.185534 6.111174,2.192604 9.901424,9.451608 7.918777,15.692449 -0.861097,2.900564 -2.854686,5.317253 -5.12619,7.250645 0.512396,1.546182 1.430787,2.898786 2.077029,4.380414 4.710973,-3.271745 8.230599,-8.618443 8.295051,-14.472832 C 52.158168,22.943629 50.89841,18.641886 48.176857,15.366964 44.792581,11.145211 39.39241,8.4580856 33.938169,8.7531047 Z m 0.209334,7.0540613 c -5.611764,-0.09091 -10.716014,5.077375 -10.393655,10.715854 0.07796,2.896195 1.201093,6.005509 3.60324,7.747497 0.989944,0.323498 1.265932,-0.955573 1.418592,-1.643964 0.48019,-1.492219 0.680513,-3.157082 -0.03531,-4.607415 -0.780742,-2.885784 0.798131,-6.242218 3.730815,-7.122424 3.158209,-1.092578 7.13952,1.012085 7.549603,4.441905 0.297639,1.554631 -0.25478,2.996189 -0.559,4.472655 -0.05905,1.874281 0.706816,3.635736 1.342059,5.358744 2.030755,-2.182432 4.175555,-4.812448 4.004023,-7.981193 0.168657,-2.099204 -0.06445,-4.296749 -1.279015,-6.082772 -1.764126,-3.135648 -5.177366,-5.248944 -8.789291,-5.291037 -0.197216,-0.0075 -0.394665,-0.01008 -0.592036,-0.0079 z m 0.155728,7.642826 c -1.528102,-0.0098 -3.018556,1.294514 -2.848972,2.891491 -0.06117,1.058324 0.656951,1.997273 0.245633,3.060599 -1.100246,7.788212 -5.308008,14.740416 -10.060683,20.837382 -2.079866,2.627037 -4.47441,5.009233 -6.633742,7.55157 -0.376854,1.147075 1.013853,1.830142 1.601431,2.589258 0.525308,0.230098 1.066323,1.589697 1.567914,1.068339 2.033263,-2.190811 4.106297,-4.350276 5.989544,-6.674038 2.5874,-0.0065 5.174819,-0.01332 7.762219,-0.01996 0,2.565926 0,5.131853 0,7.697779 1.613223,0 3.226425,0 4.839647,0 0,-2.565926 0,-5.131853 0,-7.697779 2.587305,0.0065 5.174588,0.01332 7.761891,0.01996 1.954069,2.419467 4.116796,4.657833 6.228483,6.937618 0.967655,-1.223451 2.471579,-2.033258 3.078917,-3.529976 C 53.120728,56.47838 51.381669,55.542901 50.307339,54.09533 45.098306,48.329394 40.535612,41.793418 38.103322,34.352985 c -0.618666,-2.101983 -1.28795,-4.358168 -1.144436,-6.514729 0.731034,-1.587306 0.07681,-3.972007 -1.837938,-4.303547 -0.267497,-0.06264 -0.543003,-0.09217 -0.817717,-0.08472 z m -2.379917,22.29196 c 8.3e-4,1.390359 0.0017,2.780716 0.002,4.171074 -1.317416,0 -2.634832,0 -3.952249,0 1.388912,-2.071548 2.743032,-4.169851 3.948331,-6.35474 5.02e-4,0.727888 8.3e-4,1.455779 0.0014,2.183666 z m 5.024457,-1.855592 c 1.14129,2.079025 2.454075,4.056981 3.771684,6.026666 -1.317531,0 -2.635045,0 -3.952576,0 0.0014,-2.117918 0.002,-4.235837 0.0038,-6.353757 0.05905,0.109025 0.117908,0.218061 0.176955,0.327091 z"
     id="path957"
     inkscape:connector-curvature="0" />
  <path
     inkscape:connector-curvature="0"
     id="path949"
     d="m 34.549582,8.1613799 c -6.921868,-0.0782 -13.428789,4.6100081 -15.990253,10.9694471 -2.648244,6.315833 -1.143357,14.119561 3.627825,19.028797 0.85056,0.885614 1.829562,1.642199 2.735467,2.446645 1.491418,0.361636 1.456375,-1.825931 2.2288,-2.60136 0.537871,-0.620941 0.610891,-1.691966 -0.270738,-2.06157 -4.970675,-3.956917 -6.394669,-11.720392 -2.817384,-17.031506 3.131407,-4.991194 9.872286,-7.409343 15.383956,-5.185534 6.111174,2.192604 9.901424,9.451608 7.918777,15.692449 -0.861097,2.900564 -2.854686,5.317253 -5.12619,7.250645 0.512396,1.546182 1.430787,2.898786 2.077029,4.380414 4.710973,-3.271745 8.230599,-8.618443 8.295051,-14.472832 C 52.769581,22.351905 51.509823,18.050162 48.78827,14.77524 45.403994,10.553487 40.003823,7.8663609 34.549582,8.1613799 Z m 0.209334,7.0540621 c -5.611764,-0.09091 -10.716014,5.077375 -10.393655,10.715854 0.07796,2.896195 1.201093,6.005509 3.60324,7.747497 0.989944,0.323498 1.265932,-0.955573 1.418592,-1.643964 0.48019,-1.492219 0.680513,-3.157082 -0.03531,-4.607415 -0.780742,-2.885784 0.798131,-6.242218 3.730815,-7.122424 3.158209,-1.092578 7.13952,1.012085 7.549603,4.441905 0.297639,1.554631 -0.25478,2.996189 -0.559,4.472655 -0.05905,1.874281 0.706816,3.635736 1.342059,5.358744 2.030755,-2.182432 4.175555,-4.812448 4.004023,-7.981193 0.168657,-2.099204 -0.06445,-4.296749 -1.279015,-6.082772 -1.764126,-3.135648 -5.177366,-5.248944 -8.789291,-5.291037 -0.197216,-0.0075 -0.394665,-0.01008 -0.592036,-0.0079 z m 0.155728,7.642826 c -1.528102,-0.0098 -3.018556,1.294514 -2.848972,2.891491 -0.06117,1.058324 0.656951,1.997273 0.245633,3.060599 -1.100246,7.788212 -5.308008,14.740416 -10.060683,20.837382 -2.079866,2.627037 -4.47441,5.009233 -6.633742,7.55157 -0.376854,1.147075 1.013853,1.830142 1.601431,2.589258 0.525308,0.230098 1.066323,1.589697 1.567914,1.068339 2.033263,-2.190811 4.106297,-4.350276 5.989544,-6.674038 2.5874,-0.0065 5.174819,-0.01332 7.762219,-0.01996 0,2.565926 0,5.131853 0,7.697779 1.613223,0 3.226425,0 4.839647,0 0,-2.565926 0,-5.131853 0,-7.697779 2.587305,0.0065 5.174588,0.01332 7.761891,0.01996 1.954069,2.419467 4.116796,4.657833 6.228483,6.937618 0.967655,-1.223451 2.471579,-2.033258 3.078917,-3.529976 -0.714785,-1.703855 -2.453844,-2.639334 -3.528174,-4.086905 -5.209033,-5.765936 -9.771727,-12.301912 -12.204017,-19.742345 -0.618666,-2.101983 -1.28795,-4.358168 -1.144436,-6.514729 0.731034,-1.587306 0.07681,-3.972007 -1.837938,-4.303547 -0.267497,-0.06264 -0.543003,-0.09217 -0.817717,-0.08472 z m -2.379917,22.29196 c 8.3e-4,1.390359 0.0017,2.780716 0.002,4.171074 -1.317416,0 -2.634832,0 -3.952249,0 1.388912,-2.071548 2.743032,-4.169851 3.948331,-6.35474 5.02e-4,0.727888 8.3e-4,1.455779 0.0014,2.183666 z m 5.024457,-1.855592 c 1.14129,2.079025 2.454075,4.056981 3.771684,6.026666 -1.317531,0 -2.635045,0 -3.952576,0 0.0014,-2.117918 0.002,-4.235837 0.0038,-6.353757 0.05905,0.109025 0.117908,0.218061 0.176955,0.327091 z"
     style="fill:#ffffff;stroke-width:0.23332678" />
  <g
     transform="translate(-36.947634,22.11364)"
     id="g967" />
</svg>
