<?xml version="1.0" encoding="UTF-8" standalone="no"?>
<svg
   xmlns:dc="http://purl.org/dc/elements/1.1/"
   xmlns:cc="http://creativecommons.org/ns#"
   xmlns:rdf="http://www.w3.org/1999/02/22-rdf-syntax-ns#"
   xmlns:svg="http://www.w3.org/2000/svg"
   xmlns="http://www.w3.org/2000/svg"
   xmlns:xlink="http://www.w3.org/1999/xlink"
   xmlns:sodipodi="http://sodipodi.sourceforge.net/DTD/sodipodi-0.dtd"
   xmlns:inkscape="http://www.inkscape.org/namespaces/inkscape"
   width="140"
   height="140"
   viewBox="0 0 140 140"
   version="1.1"
   id="svg844"
   sodipodi:docname="icon.svg"
   inkscape:version="0.92.3 (2405546, 2018-03-11)"
   inkscape:export-filename="/home/sardylan/develop/stationlog/station/station_log/static/description/icon.png"
   inkscape:export-xdpi="96"
   inkscape:export-ydpi="96">
  <sodipodi:namedview
     inkscape:pagecheckerboard="true"
     pagecolor="#ffffff"
     bordercolor="#666666"
     borderopacity="1"
     objecttolerance="10"
     gridtolerance="10"
     guidetolerance="10"
     inkscape:pageopacity="0"
     inkscape:pageshadow="2"
     inkscape:window-width="1920"
     inkscape:window-height="1009"
     id="namedview846"
     showgrid="false"
     inkscape:zoom="2.0000001"
     inkscape:cx="-114.66728"
     inkscape:cy="25.021586"
     inkscape:window-x="0"
     inkscape:window-y="0"
     inkscape:window-maximized="1"
     inkscape:current-layer="svg844" />
  <metadata
     id="metadata848">
    <rdf:RDF>
      <cc:Work
         rdf:about="">
        <dc:format>image/svg+xml</dc:format>
        <dc:type
           rdf:resource="http://purl.org/dc/dcmitype/StillImage" />
        <dc:title />
      </cc:Work>
    </rdf:RDF>
  </metadata>
  <defs
     id="defs823">
    <path
       inkscape:connector-curvature="0"
       id="a"
       d="m 4,0 h 61 c 4,0 5,1 5,5 v 60 c 0,4 -1,5 -5,5 H 4 C 1,70 0,69 0,65 V 5 C 0,1 1,0 4,0 Z" />
    <linearGradient
       id="c"
       x1="70"
       x2="0"
       y1="0"
       y2="70"
       gradientUnits="userSpaceOnUse">
      <stop
         offset="0%"
         stop-color="#269396"
         id="stop816" />
      <stop
         offset="100%"
         stop-color="#218689"
         id="stop818" />
    </linearGradient>
    <path
       inkscape:connector-curvature="0"
       id="d"
       d="m 26.971,49.017 c 0,2.879 -2.4,5.212 -5.36,5.212 -2.961,0 -5.361,-2.333 -5.361,-5.212 0,-2.878 2.4,-5.211 5.36,-5.211 2.961,0 5.361,2.333 5.361,5.211 z m 14.704,3.846 C 40.975,40.281 30.61,30.191 17.655,29.511 16.891,29.471 16.25,30.068 16.25,30.812 v 3.912 c 0,0.685 0.543,1.26 1.246,1.304 9.361,0.592 16.864,7.87 17.475,16.99 0.046,0.683 0.637,1.211 1.341,1.211 h 4.024 c 0.766,0 1.38,-0.623 1.339,-1.366 z m 12.074,0.023 C 53.047,33.858 37.299,18.458 17.631,17.772 16.876,17.745 16.25,18.339 16.25,19.074 v 3.912 c 0,0.702 0.572,1.273 1.293,1.302 16.003,0.638 28.848,13.128 29.504,28.684 0.03,0.701 0.617,1.257 1.339,1.257 h 4.023 c 0.757,0 1.367,-0.608 1.34,-1.343 z" />
    <path
       inkscape:connector-curvature="0"
       id="e"
       d="m 26.971,47.017 c 0,2.879 -2.4,5.212 -5.36,5.212 -2.961,0 -5.361,-2.333 -5.361,-5.212 0,-2.878 2.4,-5.211 5.36,-5.211 2.961,0 5.361,2.333 5.361,5.211 z m 14.704,3.846 C 40.975,38.281 30.61,28.191 17.655,27.511 16.891,27.471 16.25,28.068 16.25,28.812 v 3.912 c 0,0.685 0.543,1.26 1.246,1.304 9.361,0.592 16.864,7.87 17.475,16.99 0.046,0.683 0.637,1.211 1.341,1.211 h 4.024 c 0.766,0 1.38,-0.623 1.339,-1.366 z m 12.074,0.023 C 53.047,31.858 37.299,16.458 17.631,15.772 16.876,15.745 16.25,16.339 16.25,17.074 v 3.912 c 0,0.702 0.572,1.273 1.293,1.302 16.003,0.638 28.848,13.128 29.504,28.684 0.03,0.701 0.617,1.257 1.339,1.257 h 4.023 c 0.757,0 1.367,-0.608 1.34,-1.343 z" />
    <mask
       fill="#fff"
       id="b">
      <use
         height="100%"
         width="100%"
         y="0"
         x="0"
         id="use825"
         xlink:href="#a" />
    </mask>
    <path
       inkscape:connector-curvature="0"
       d="m 4,0 c 32.416012,0 54.083607,0 61,0 4,0 5,1 5,5 0,38.048888 0,57.423546 0,60 0,4 -1,5 -5,5 C 61,70 9,70 4,70 1,70 0,69 0,65 0,62.467658 0,41.800521 0,5 0,1 1,0 4,0 Z"
       id="icon-a" />
    <linearGradient
       y2="70"
       y1="0"
       x2="0"
       x1="70"
       id="icon-c"
       gradientUnits="userSpaceOnUse"
       gradientTransform="translate(61.617647,44.364706)">
      <stop
         id="stop872"
         stop-color="#269396"
         offset="0%" />
      <stop
         id="stop874"
         stop-color="#218689"
         offset="100%" />
    </linearGradient>
    <path
       inkscape:connector-curvature="0"
       d="m 35.5,22.75 c 4.15293,0 7.519531,3.366602 7.519531,7.519531 0,4.15293 -3.366601,7.519531 -7.519531,7.519531 -4.15293,0 -7.519531,-3.366601 -7.519531,-7.519531 C 27.980469,26.116602 31.34707,22.75 35.5,22.75 Z m 8.125605,15.566575 -2.863294,-0.715859 c -3.521146,2.53265 -7.789232,1.967468 -10.524551,0 l -2.863294,0.715859 c -2.295462,0.573848 -3.905716,2.636205 -3.905716,5.002279 v 4.353021 c 0,1.423841 1.154284,2.578125 2.578125,2.578125 h 18.90625 c 1.423841,0 2.578125,-1.154284 2.578125,-2.578125 v -4.353021 c 0,-2.366074 -1.610254,-4.428431 -3.905645,-5.002279 z m 6.770228,1.334467 c 2.76862,0 5.013021,-2.244401 5.013021,-5.013021 0,-2.76862 -2.244401,-5.013021 -5.013021,-5.013021 -2.768619,0 -5.013021,2.244401 -5.013021,5.013021 0,2.76862 2.244402,5.013021 5.013021,5.013021 z m -29.791666,0 c 2.768619,0 5.01302,-2.244401 5.01302,-5.013021 0,-2.76862 -2.244401,-5.013021 -5.01302,-5.013021 -2.76862,0 -5.013021,2.244401 -5.013021,5.013021 0,2.76862 2.244401,5.013021 5.013021,5.013021 z m 1.71875,8.020833 v -4.353021 c 0,-1.185293 0.328925,-2.306276 0.90972,-3.265553 -2.147578,1.054166 -4.535781,0.62362 -6.136654,-0.5278 l -1.908887,0.47724 c -1.53026,0.382493 -2.603763,1.757493 -2.603763,3.334805 v 2.902037 c 0,0.949252 0.769499,1.71875 1.71875,1.71875 h 8.032937 c -0.0077,-0.0953 -0.01172,-0.190853 -0.0121,-0.286458 z M 55.812904,40.002669 53.904017,39.52543 c -1.999837,1.43845 -4.360612,1.377363 -6.143529,0.516914 0.584948,0.961712 0.916595,2.086634 0.916595,3.27651 v 4.353021 c 0,0.09647 -0.0049,0.191784 -0.0121,0.286458 h 8.032937 c 0.949251,0 1.71875,-0.769498 1.71875,-1.71875 v -2.902037 c 0,-1.577312 -1.073503,-2.952312 -2.603763,-3.334877 z"
       id="icon-d" />
    <path
       inkscape:connector-curvature="0"
       d="m 35.5,20.75 c 4.15293,0 7.519531,3.366602 7.519531,7.519531 0,4.15293 -3.366601,7.519531 -7.519531,7.519531 -4.15293,0 -7.519531,-3.366601 -7.519531,-7.519531 C 27.980469,24.116602 31.34707,20.75 35.5,20.75 Z m 8.125605,15.566575 -2.863294,-0.715859 c -3.521146,2.53265 -7.789232,1.967468 -10.524551,0 l -2.863294,0.715859 c -2.295462,0.573848 -3.905716,2.636205 -3.905716,5.002279 v 4.353021 c 0,1.423841 1.154284,2.578125 2.578125,2.578125 h 18.90625 c 1.423841,0 2.578125,-1.154284 2.578125,-2.578125 v -4.353021 c 0,-2.366074 -1.610254,-4.428431 -3.905645,-5.002279 z m 6.770228,1.334467 c 2.76862,0 5.013021,-2.244401 5.013021,-5.013021 0,-2.76862 -2.244401,-5.013021 -5.013021,-5.013021 -2.768619,0 -5.013021,2.244401 -5.013021,5.013021 0,2.76862 2.244402,5.013021 5.013021,5.013021 z m -29.791666,0 c 2.768619,0 5.01302,-2.244401 5.01302,-5.013021 0,-2.76862 -2.244401,-5.013021 -5.01302,-5.013021 -2.76862,0 -5.013021,2.244401 -5.013021,5.013021 0,2.76862 2.244401,5.013021 5.013021,5.013021 z m 1.71875,8.020833 v -4.353021 c 0,-1.185293 0.328925,-2.306276 0.90972,-3.265553 -2.147578,1.054166 -4.535781,0.62362 -6.136654,-0.5278 l -1.908887,0.47724 c -1.53026,0.382493 -2.603763,1.757493 -2.603763,3.334805 v 2.902037 c 0,0.949252 0.769499,1.71875 1.71875,1.71875 h 8.032937 c -0.0077,-0.0953 -0.01172,-0.190853 -0.0121,-0.286458 z M 55.812904,38.002669 53.904017,37.52543 c -1.999837,1.43845 -4.360612,1.377363 -6.143529,0.516914 0.584948,0.961712 0.916595,2.086634 0.916595,3.27651 v 4.353021 c 0,0.09647 -0.0049,0.191784 -0.0121,0.286458 h 8.032937 c 0.949251,0 1.71875,-0.769498 1.71875,-1.71875 v -2.902037 c 0,-1.577312 -1.073503,-2.952312 -2.603763,-3.334877 z"
       id="icon-e" />
    <mask
       id="icon-b"
       fill="#fff">
      <use
         height="100%"
         width="100%"
         y="0"
         x="0"
         xlink:href="#icon-a"
         id="use881" />
    </mask>
    <clipPath
       id="clipPath2490"
       clipPathUnits="userSpaceOnUse">
      <path
         inkscape:connector-curvature="0"
         style="fill:#5d8367;fill-opacity:1;fill-rule:evenodd"
         id="path2492"
         d="M 0,0 H 70 V 70 H 0 Z" />
    </clipPath>
  </defs>
  <rect
     ry="0"
     rx="0"
     y="-2.220446e-14"
     x="0"
     height="140"
     width="140"
     id="rect944"
     style="fill:#1ebaeb;fill-opacity:1;stroke:none;stroke-width:5.48344755;stroke-miterlimit:4;stroke-dasharray:none;stroke-opacity:0.36500005" />
  <path
     style="fill:#000000;stroke-width:0.08908551;fill-opacity:0.23529412"
     d="M 40.529297 29.675781 C 38.484775 29.675781 36.635895 30.522758 35.308594 31.880859 C 35.100921 32.051392 34.904464 32.235722 34.716797 32.427734 C 34.506989 32.60002 34.30852 32.786268 34.119141 32.980469 C 33.911317 33.151459 33.715083 33.334825 33.527344 33.527344 C 33.321609 33.696615 33.127467 33.879934 32.941406 34.070312 C 32.733734 34.240845 32.537277 34.425175 32.349609 34.617188 C 32.139802 34.789473 31.941332 34.975722 31.751953 35.169922 C 31.54413 35.340911 31.347895 35.524279 31.160156 35.716797 C 30.954422 35.886068 30.76028 36.069388 30.574219 36.259766 C 30.368008 36.429097 30.174774 36.612218 29.988281 36.802734 C 29.777959 36.975106 29.580466 37.161095 29.390625 37.355469 C 29.182292 37.526544 28.987025 37.709654 28.798828 37.902344 C 28.592245 38.071982 28.397729 38.254414 28.210938 38.445312 C 28.003189 38.615648 27.80886 38.80037 27.621094 38.992188 C 27.410771 39.164558 27.213279 39.350549 27.023438 39.544922 C 26.815105 39.715997 26.619838 39.899107 26.431641 40.091797 C 26.223308 40.262872 26.028041 40.445983 25.839844 40.638672 C 25.633252 40.808316 25.438752 40.990735 25.251953 41.181641 C 25.042072 41.353725 24.845727 41.540375 24.65625 41.734375 C 24.447917 41.90545 24.25265 42.088561 24.064453 42.28125 C 23.85612 42.452325 23.660853 42.635436 23.472656 42.828125 C 23.266065 42.997768 23.071565 43.180188 22.884766 43.371094 C 22.674885 43.543177 22.47854 43.729829 22.289062 43.923828 C 22.08073 44.094902 21.885463 44.278015 21.697266 44.470703 C 21.488933 44.641777 21.293666 44.82489 21.105469 45.017578 C 20.898877 45.187221 20.704377 45.369642 20.517578 45.560547 C 20.307697 45.73263 20.111352 45.919282 19.921875 46.113281 C 19.713543 46.284355 19.518275 46.467468 19.330078 46.660156 C 19.121746 46.83123 18.926478 47.014343 18.738281 47.207031 C 18.53169 47.376674 18.33719 47.559095 18.150391 47.75 C 17.94051 47.922083 17.744164 48.108736 17.554688 48.302734 C 17.346355 48.473808 17.151087 48.656922 16.962891 48.849609 C 16.754558 49.020683 16.559291 49.203797 16.371094 49.396484 C 16.164515 49.566119 15.969992 49.748559 15.783203 49.939453 C 15.573338 50.111525 15.376964 50.298202 15.1875 50.492188 C 14.977759 50.66442 14.781122 50.848835 14.591797 51.042969 C 14.384019 51.213919 14.187703 51.397374 14 51.589844 C 13.79359 51.759667 13.598714 51.943699 13.412109 52.134766 C 13.203117 52.30651 13.005114 52.492048 12.816406 52.685547 C 12.608628 52.856497 12.412312 53.039953 12.224609 53.232422 C 12.016831 53.403372 11.820515 53.586828 11.632812 53.779297 C 11.426404 53.94912 11.231526 54.133153 11.044922 54.324219 C 10.835929 54.495962 10.637926 54.681501 10.449219 54.875 C 10.241441 55.045949 10.045125 55.229406 9.8574219 55.421875 C 9.649644 55.592824 9.4533278 55.776281 9.265625 55.96875 C 9.0592154 56.138573 8.8643387 56.322607 8.6777344 56.513672 C 8.4687417 56.685415 8.2707386 56.870955 8.0820312 57.064453 C 7.8742535 57.235402 7.6779372 57.41886 7.4902344 57.611328 C 7.2824566 57.782277 7.0861403 57.965735 6.8984375 58.158203 C 6.692028 58.328025 6.4971512 58.51206 6.3105469 58.703125 C 6.1015543 58.874868 5.903551 59.060408 5.7148438 59.253906 C 5.507066 59.424855 5.3107496 59.608313 5.1230469 59.800781 C 4.9152692 59.97173 4.7189528 60.155189 4.53125 60.347656 C 4.3248406 60.517478 4.1299636 60.701514 3.9433594 60.892578 C 3.734367 61.064321 3.5363634 61.249862 3.3476562 61.443359 C 3.1398788 61.614308 2.9435621 61.797767 2.7558594 61.990234 C 2.5480818 62.161183 2.3517652 62.344642 2.1640625 62.537109 C 1.9576532 62.706931 1.7627761 62.890967 1.5761719 63.082031 C 1.3671796 63.253773 1.1691759 63.439316 0.98046875 63.632812 C 0.77269127 63.80376 0.57637454 63.98722 0.38867188 64.179688 C 0.25217468 64.291989 0.12741208 64.416954 0 64.539062 L 0 140 L 65.726562 140 C 65.775372 139.95236 65.829301 139.91019 65.876953 139.86133 C 66.084732 139.69038 66.281045 139.50692 66.46875 139.31445 C 66.675161 139.14463 66.870035 138.9606 67.056641 138.76953 C 67.265634 138.59779 67.463635 138.41225 67.652344 138.21875 C 67.860123 138.0478 68.056436 137.86434 68.244141 137.67188 C 68.45192 137.50093 68.648232 137.31747 68.835938 137.125 C 69.042348 136.95518 69.237222 136.77114 69.423828 136.58008 C 69.632822 136.40834 69.830822 136.22279 70.019531 136.0293 C 70.22731 135.85835 70.423623 135.67489 70.611328 135.48242 C 70.819107 135.31147 71.01542 135.12802 71.203125 134.93555 C 71.409536 134.76572 71.604409 134.58169 71.791016 134.39062 C 72.00001 134.21889 72.19801 134.03334 72.386719 133.83984 C 72.594498 133.66889 72.790811 133.48544 72.978516 133.29297 C 73.186295 133.12202 73.382608 132.93856 73.570312 132.74609 C 73.776054 132.57682 73.970183 132.3935 74.15625 132.20312 C 74.366058 132.03084 74.564526 131.84459 74.753906 131.65039 C 74.96173 131.4794 75.157963 131.29603 75.345703 131.10352 C 75.553527 130.93253 75.74976 130.74916 75.9375 130.55664 C 76.143241 130.38737 76.33737 130.20405 76.523438 130.01367 C 76.733245 129.84139 76.931713 129.65513 77.121094 129.46094 C 77.328918 129.28995 77.52515 129.10658 77.712891 128.91406 C 77.920715 128.74308 78.116946 128.5597 78.304688 128.36719 C 78.510428 128.19792 78.704558 128.0146 78.890625 127.82422 C 79.100433 127.65194 79.298901 127.46568 79.488281 127.27148 C 79.696105 127.1005 79.892338 126.91712 80.080078 126.72461 C 80.287902 126.55362 80.484135 126.37025 80.671875 126.17773 C 80.877616 126.00846 81.071746 125.82515 81.257812 125.63477 C 81.467621 125.46248 81.666088 125.27623 81.855469 125.08203 C 82.063293 124.91104 82.259525 124.72767 82.447266 124.53516 C 82.65509 124.36417 82.851322 124.1808 83.039062 123.98828 C 83.244804 123.81901 83.438933 123.63569 83.625 123.44531 C 83.834809 123.27303 84.033275 123.08678 84.222656 122.89258 C 84.43048 122.72159 84.626713 122.53822 84.814453 122.3457 C 85.022277 122.17472 85.218509 121.99134 85.40625 121.79883 C 85.611991 121.62956 85.80612 121.44624 85.992188 121.25586 C 86.201995 121.08358 86.400463 120.89732 86.589844 120.70312 C 86.797668 120.53214 86.9939 120.34877 87.181641 120.15625 C 87.389465 119.98526 87.585697 119.80189 87.773438 119.60938 C 87.979179 119.44009 88.173308 119.25679 88.359375 119.06641 C 88.569184 118.89412 88.76765 118.70787 88.957031 118.51367 C 89.164856 118.34268 89.361087 118.15931 89.548828 117.9668 C 89.756653 117.79581 89.952884 117.61244 90.140625 117.41992 C 90.346361 117.25065 90.5405 117.06733 90.726562 116.87695 C 90.936371 116.70467 91.134838 116.51842 91.324219 116.32422 C 91.532043 116.15323 91.728275 115.96986 91.916016 115.77734 C 92.12384 115.60635 92.320073 115.42299 92.507812 115.23047 C 92.713549 115.0612 92.907687 114.87788 93.09375 114.6875 C 93.301424 114.51697 93.497878 114.33265 93.685547 114.14062 C 93.895356 113.96834 94.093822 113.78209 94.283203 113.58789 C 94.491028 113.4169 94.687259 113.23353 94.875 113.04102 C 95.080736 112.87174 95.274874 112.68843 95.460938 112.49805 C 95.66861 112.32752 95.865065 112.14318 96.052734 111.95117 C 96.262543 111.77889 96.46101 111.59264 96.650391 111.39844 C 96.858215 111.22745 97.054447 111.04408 97.242188 110.85156 C 97.447924 110.68229 97.642062 110.49897 97.828125 110.30859 C 98.035799 110.13806 98.232253 109.95373 98.419922 109.76172 C 98.629731 109.58943 98.828197 109.40318 99.017578 109.20898 C 99.225403 109.03799 99.421634 108.85463 99.609375 108.66211 C 101.23919 107.32116 102.2793 105.2899 102.2793 103.01953 L 102.2793 87.757812 L 96.972656 87.757812 L 96.972656 88.306641 L 96.380859 88.306641 L 96.380859 88.853516 L 95.789062 88.853516 L 95.789062 89.400391 L 95.197266 89.400391 L 95.197266 89.947266 L 94.605469 89.947266 L 94.605469 90.496094 L 94.013672 90.496094 L 94.013672 91.042969 L 93.421875 91.042969 L 93.421875 91.589844 L 92.830078 91.589844 L 92.830078 92.136719 L 92.238281 92.136719 L 92.238281 92.685547 L 91.646484 92.685547 L 91.646484 93.232422 L 91.054688 93.232422 L 91.054688 93.779297 L 90.462891 93.779297 L 90.462891 94.326172 L 89.871094 94.326172 L 89.871094 94.875 L 89.279297 94.875 L 89.279297 95.421875 L 88.6875 95.421875 L 88.6875 95.96875 L 88.095703 95.96875 L 88.095703 96.515625 L 87.503906 96.515625 L 87.503906 97.064453 L 86.912109 97.064453 L 86.912109 97.611328 L 86.320312 97.611328 L 86.320312 98.158203 L 85.728516 98.158203 L 85.728516 98.705078 L 85.136719 98.705078 L 85.136719 99.253906 L 84.544922 99.253906 L 84.544922 99.800781 L 83.953125 99.800781 L 83.953125 100.34766 L 83.361328 100.34766 L 83.361328 100.89453 L 82.771484 100.89453 L 82.769531 100.89453 L 82.769531 101.44336 L 82.179688 101.44336 L 82.177734 101.44336 L 82.177734 101.99023 L 81.587891 101.99023 L 81.585938 101.99023 L 81.585938 102.53711 L 80.996094 102.53711 L 80.994141 102.53711 L 80.994141 103.08398 L 80.404297 103.08398 L 80.402344 103.08398 L 80.402344 103.63281 L 79.8125 103.63281 L 79.8125 104.17969 L 79.220703 104.17969 L 79.220703 104.72656 L 78.628906 104.72656 L 78.626953 104.72656 L 78.626953 105.01758 L 74.40625 105.01758 C 74.434307 104.98542 74.466965 104.95004 74.486328 104.92578 L 74.488281 104.92383 C 74.493071 104.91783 74.497753 104.91225 74.501953 104.90625 L 74.503906 104.9043 C 74.504006 104.9043 74.507812 104.90039 74.507812 104.90039 C 74.519803 104.89129 74.5435 104.8741 74.5625 104.8457 C 74.58391 104.82961 74.617891 104.80081 74.648438 104.77539 L 74.683594 104.75195 C 74.711934 104.73365 74.729634 104.71252 74.740234 104.69922 C 74.908715 104.59053 75.015255 104.45771 75.078125 104.37891 L 75.080078 104.37695 C 75.084948 104.37085 75.08955 104.36342 75.09375 104.35742 L 75.095703 104.35742 L 75.099609 104.35352 C 75.111209 104.34472 75.133984 104.32828 75.152344 104.30078 C 75.174945 104.28379 75.209594 104.25392 75.242188 104.22656 L 75.275391 104.20508 C 75.302761 104.18748 75.319838 104.16514 75.330078 104.15234 C 75.499538 104.04302 75.606692 103.91123 75.669922 103.83203 C 75.670822 103.83103 75.671179 103.8291 75.671875 103.82812 C 75.676725 103.82203 75.681347 103.81655 75.685547 103.81055 L 75.6875 103.81055 L 75.691406 103.80664 C 75.702606 103.79824 75.724457 103.78236 75.742188 103.75586 C 75.765102 103.73863 75.800883 103.70751 75.833984 103.67969 C 75.834221 103.67954 75.867188 103.6582 75.867188 103.6582 C 75.893587 103.6411 75.910022 103.61982 75.919922 103.60742 C 76.09036 103.49747 76.198119 103.36486 76.261719 103.28516 C 76.262519 103.28416 76.263 103.28219 76.263672 103.28125 C 76.268602 103.27515 76.273144 103.26967 76.277344 103.26367 L 76.279297 103.26172 L 76.283203 103.25781 C 76.293993 103.24971 76.314931 103.23448 76.332031 103.20898 C 76.353484 103.19286 76.387467 103.16399 76.417969 103.13867 C 76.418334 103.13844 76.458984 103.11133 76.458984 103.11133 C 76.484394 103.09493 76.500266 103.0744 76.509766 103.0625 C 76.681183 102.95192 76.789556 102.81653 76.853516 102.73633 L 76.855469 102.73438 C 76.860379 102.72817 76.864841 102.7228 76.869141 102.7168 L 76.871094 102.71484 C 76.871194 102.71484 76.875 102.71094 76.875 102.71094 C 76.8854 102.70314 76.905415 102.68866 76.921875 102.66406 C 76.948092 102.64435 76.988427 102.6117 77.027344 102.57812 C 77.027462 102.57806 77.050781 102.5625 77.050781 102.5625 C 77.075221 102.5468 77.090509 102.52898 77.099609 102.51758 C 77.272004 102.40637 77.380994 102.27005 77.445312 102.18945 L 77.447266 102.1875 C 77.452256 102.1813 77.456636 102.17397 77.460938 102.16797 L 77.462891 102.16797 L 77.466797 102.16406 C 77.476797 102.15656 77.495889 102.14284 77.511719 102.11914 C 77.537086 102.10007 77.575944 102.06708 77.613281 102.03516 C 77.613466 102.03504 77.642578 102.01562 77.642578 102.01562 C 77.666038 102.00052 77.680653 101.9817 77.689453 101.9707 C 77.862827 101.85886 77.972419 101.72368 78.037109 101.64258 L 78.039062 101.64062 C 78.044043 101.63443 78.048434 101.62709 78.052734 101.62109 L 78.054688 101.62109 L 78.058594 101.61719 C 78.068184 101.60999 78.086364 101.59497 78.101562 101.57227 C 78.129267 101.55144 78.171371 101.51665 78.212891 101.48047 L 78.234375 101.4668 C 78.256855 101.4523 78.270897 101.43628 78.279297 101.42578 C 78.45365 101.31331 78.563856 101.17525 78.628906 101.09375 L 78.628906 101.0918 C 78.633966 101.0855 78.640231 101.08022 78.644531 101.07422 L 78.646484 101.07227 C 78.646584 101.07227 78.650391 101.06836 78.650391 101.06836 C 78.659591 101.06146 78.676846 101.04914 78.691406 101.02734 C 78.720328 101.0056 78.762945 100.97008 78.806641 100.93164 C 78.806717 100.93159 78.826172 100.91992 78.826172 100.91992 C 78.847682 100.90602 78.861141 100.88901 78.869141 100.87891 C 79.044473 100.7658 79.155283 100.62887 79.220703 100.54688 L 79.220703 100.54492 C 79.225743 100.53862 79.231928 100.53334 79.236328 100.52734 L 79.236328 100.52539 L 79.242188 100.52148 C 79.250986 100.51488 79.26732 100.50322 79.28125 100.48242 C 79.310722 100.46027 79.355738 100.42418 79.400391 100.38477 C 79.400456 100.38472 79.417969 100.37305 79.417969 100.37305 C 79.438499 100.35985 79.451284 100.34398 79.458984 100.33398 C 79.635294 100.22025 79.74672 100.0824 79.8125 100 L 79.8125 99.998047 C 79.81762 99.991707 79.823725 99.986369 79.828125 99.980469 L 79.828125 99.978516 L 79.833984 99.974609 C 79.842384 99.968299 79.857794 99.955417 79.871094 99.935547 C 79.898853 99.914677 79.940952 99.879757 79.982422 99.84375 L 80.009766 99.826172 C 80.029316 99.813562 80.041528 99.798264 80.048828 99.789062 C 80.226117 99.674696 80.336194 99.536025 80.402344 99.453125 L 80.404297 99.451172 C 80.409397 99.444802 80.415522 99.437641 80.419922 99.431641 C 80.419922 99.431541 80.425781 99.427734 80.425781 99.427734 C 80.433781 99.421724 80.448278 99.409555 80.460938 99.390625 C 80.491316 99.367785 80.537767 99.332027 80.583984 99.291016 L 80.601562 99.279297 C 80.620143 99.267317 80.631772 99.252841 80.638672 99.244141 C 80.81694 99.129144 80.927631 98.98961 80.994141 98.90625 L 80.996094 98.904297 C 81.001284 98.897887 81.007319 98.890766 81.011719 98.884766 L 81.017578 98.878906 C 81.025178 98.873196 81.038751 98.863683 81.050781 98.845703 C 81.080024 98.823719 81.123893 98.786707 81.167969 98.748047 L 81.193359 98.732422 C 81.210949 98.721072 81.221916 98.707419 81.228516 98.699219 C 81.407762 98.583591 81.519057 98.443185 81.585938 98.359375 L 81.587891 98.357422 C 81.593061 98.350982 81.599016 98.343891 81.603516 98.337891 L 81.603516 98.335938 L 81.609375 98.332031 C 81.616575 98.326621 81.629225 98.315868 81.640625 98.298828 C 81.672476 98.274883 81.720706 98.237131 81.769531 98.193359 L 81.785156 98.183594 C 81.801776 98.172874 81.812159 98.160144 81.818359 98.152344 C 81.998584 98.036085 82.110494 97.894817 82.177734 97.810547 L 82.179688 97.808594 C 82.184838 97.802124 82.190814 97.797116 82.195312 97.791016 L 82.195312 97.789062 L 82.201172 97.785156 C 82.207962 97.780046 82.221662 97.769996 82.232422 97.753906 C 82.265766 97.728839 82.313695 97.691299 82.365234 97.644531 C 82.365263 97.644513 82.376953 97.636719 82.376953 97.636719 C 82.392593 97.626639 82.402303 97.614722 82.408203 97.607422 C 82.589407 97.490533 82.701921 97.348402 82.769531 97.263672 L 82.771484 97.261719 C 82.776714 97.255209 82.782609 97.248288 82.787109 97.242188 C 82.787209 97.242187 82.792969 97.238281 82.792969 97.238281 C 82.799369 97.233471 82.812136 97.224124 82.822266 97.208984 C 82.855841 97.183743 82.905119 97.144784 82.957031 97.097656 L 82.96875 97.089844 C 82.98341 97.080384 82.992547 97.0694 82.998047 97.0625 C 83.18023 96.94498 83.293358 96.801987 83.361328 96.716797 L 83.363281 96.714844 C 83.368491 96.708304 83.374406 96.701414 83.378906 96.695312 L 83.384766 96.689453 C 83.390766 96.684943 83.402609 96.676309 83.412109 96.662109 C 83.443982 96.638149 83.490361 96.600106 83.539062 96.556641 L 83.560547 96.542969 C 83.574237 96.534139 83.582791 96.522025 83.587891 96.515625 C 83.771052 96.397474 83.884785 96.255562 83.953125 96.169922 L 83.955078 96.167969 C 83.960358 96.161399 83.966103 96.154638 83.970703 96.148438 L 83.970703 96.146484 L 83.976562 96.142578 C 83.982152 96.138378 83.993053 96.130437 84.001953 96.117188 C 84.039386 96.089045 84.093355 96.049482 84.152344 95.994141 C 84.165054 95.985951 84.172934 95.976703 84.177734 95.970703 C 84.361874 95.851921 84.476222 95.707194 84.544922 95.621094 L 84.546875 95.621094 C 84.552195 95.614484 84.5579 95.607764 84.5625 95.601562 L 84.5625 95.599609 L 84.568359 95.595703 C 84.573559 95.591793 84.583597 95.584566 84.591797 95.572266 C 84.62943 95.543975 84.682884 95.502902 84.742188 95.447266 L 84.744141 95.447266 C 84.755871 95.439696 84.763178 95.431281 84.767578 95.425781 C 84.952696 95.306369 85.067659 95.160779 85.136719 95.074219 L 85.138672 95.072266 C 85.144012 95.065616 85.149697 95.058934 85.154297 95.052734 L 85.160156 95.048828 C 85.164956 95.045228 85.174041 95.038704 85.181641 95.027344 C 85.219474 94.998903 85.276317 94.956323 85.335938 94.900391 C 85.346688 94.893461 85.353422 94.883906 85.357422 94.878906 C 85.543519 94.758863 85.659086 94.614354 85.728516 94.527344 L 85.730469 94.525391 C 85.735839 94.518701 85.741494 94.512159 85.746094 94.505859 C 85.746094 94.505759 85.751953 94.5 85.751953 94.5 C 85.756353 94.49669 85.764484 94.490879 85.771484 94.480469 C 85.809517 94.451878 85.863894 94.411697 85.923828 94.355469 L 85.927734 94.353516 C 85.937474 94.347206 85.943566 94.338584 85.947266 94.333984 C 86.134342 94.21331 86.250524 94.067939 86.320312 93.980469 L 86.322266 93.978516 C 86.327656 93.971796 86.333191 93.965284 86.337891 93.958984 L 86.337891 93.957031 L 86.34375 93.953125 C 86.34775 93.950125 86.355028 93.945047 86.361328 93.935547 C 86.400126 93.906381 86.458226 93.862511 86.519531 93.804688 C 86.528311 93.799008 86.533809 93.793163 86.537109 93.789062 C 86.725164 93.667757 86.841949 93.519571 86.912109 93.431641 L 86.914062 93.431641 C 86.919483 93.424891 86.924988 93.418409 86.929688 93.412109 L 86.929688 93.410156 L 86.935547 93.40625 C 86.939147 93.40354 86.945472 93.399125 86.951172 93.390625 C 86.990335 93.361185 87.049399 93.316315 87.111328 93.257812 C 87.119158 93.252783 87.124053 93.247841 87.126953 93.244141 C 87.315987 93.122205 87.433386 92.973146 87.503906 92.884766 L 87.505859 92.884766 C 87.511309 92.877976 87.516784 92.869681 87.521484 92.863281 L 87.527344 92.859375 C 87.530534 92.856975 87.535916 92.85135 87.541016 92.84375 C 87.580383 92.814157 87.640874 92.769744 87.703125 92.710938 C 87.710005 92.706558 87.714197 92.700466 87.716797 92.697266 C 87.906809 92.574699 88.024813 92.426731 88.095703 92.337891 L 88.097656 92.335938 C 88.103136 92.329116 88.108581 92.322806 88.113281 92.316406 L 88.119141 92.310547 C 88.121981 92.308437 88.126459 92.305428 88.130859 92.298828 C 88.169691 92.269638 88.227869 92.225378 88.289062 92.167969 L 88.294922 92.164062 C 88.300742 92.160242 88.304441 92.155044 88.306641 92.152344 C 88.497632 92.029146 88.61625 91.880316 88.6875 91.791016 L 88.689453 91.789062 C 88.694963 91.782202 88.700278 91.775931 88.705078 91.769531 L 88.710938 91.763672 C 88.713297 91.761842 88.718856 91.759606 88.722656 91.753906 C 88.763349 91.723317 88.822108 91.6768 88.886719 91.615234 L 88.888672 91.613281 C 88.891898 91.610657 88.895079 91.609217 88.896484 91.607422 C 89.088453 91.483593 89.207677 91.331937 89.279297 91.242188 L 89.28125 91.242188 C 89.28679 91.235287 89.292075 91.229156 89.296875 91.222656 L 89.296875 91.220703 L 89.302734 91.216797 C 89.304734 91.215297 89.3093 91.211731 89.3125 91.207031 C 89.353562 91.176165 89.413274 91.130621 89.478516 91.068359 C 89.482416 91.065859 89.484828 91.062347 89.486328 91.060547 C 89.679276 90.936087 89.799114 90.785522 89.871094 90.695312 C 89.876654 90.688373 89.883872 90.680328 89.888672 90.673828 L 89.894531 90.669922 C 89.896131 90.668722 89.899844 90.665909 89.902344 90.662109 C 89.942705 90.63177 89.998624 90.585832 90.0625 90.525391 L 90.070312 90.521484 C 90.073313 90.519584 90.075072 90.517025 90.076172 90.515625 C 90.270099 90.390534 90.390541 90.239108 90.462891 90.148438 C 90.468481 90.141467 90.475669 90.133453 90.480469 90.126953 L 90.486328 90.121094 C 90.487528 90.120194 90.490286 90.119987 90.492188 90.117188 C 90.534006 90.085752 90.595572 90.038309 90.662109 89.974609 C 90.664009 89.973309 90.665285 89.971619 90.666016 89.970703 C 90.860922 89.844982 90.983931 89.692693 91.056641 89.601562 C 91.062261 89.594562 91.067366 89.586678 91.072266 89.580078 L 91.078125 89.574219 C 91.078925 89.573619 91.080731 89.572214 91.082031 89.570312 C 91.124259 89.538572 91.186664 89.490276 91.253906 89.425781 L 91.255859 89.423828 C 91.451743 89.297476 91.573404 89.144314 91.646484 89.052734 C 91.652134 89.045694 91.659163 89.039803 91.664062 89.033203 L 91.664062 89.03125 L 91.669922 89.027344 L 91.671875 89.025391 C 91.713937 88.993773 91.774919 88.944778 91.841797 88.880859 L 91.845703 88.878906 C 92.042566 88.751923 92.164841 88.597899 92.238281 88.505859 C 92.243961 88.498789 92.250959 88.490975 92.255859 88.484375 L 92.261719 88.480469 C 92.342181 88.419988 92.491787 88.307754 92.619141 88.117188 L 115.0293 54.378906 C 115.59207 53.555155 117.46285 50.807633 118.14648 49.6875 C 119.79927 46.971504 117.70317 43.849355 117.46289 43.507812 C 117.31465 43.293533 117.13109 43.099602 116.91016 42.927734 C 116.64634 42.725035 114.25433 40.909314 111.58203 39.609375 C 110.65966 39.16138 109.72248 38.933594 108.79492 38.933594 C 106.65159 38.933594 105.28997 40.077162 104.66406 40.753906 C 104.41041 40.95981 104.22495 41.136955 104.06836 41.306641 C 103.81834 41.509475 103.6339 41.683688 103.47852 41.851562 C 103.22103 42.059794 103.03427 42.237311 102.87695 42.408203 C 102.62534 42.612113 102.44213 42.787088 102.28711 42.955078 C 102.03052 43.162478 101.84568 43.339865 101.68945 43.509766 C 101.43637 43.714438 101.25249 43.88854 101.09766 44.056641 C 100.84345 44.261773 100.65896 44.439046 100.50391 44.607422 C 100.24806 44.813594 100.0634 44.9894 99.908203 45.158203 C 99.653033 45.363771 99.469054 45.540774 99.314453 45.708984 C 99.055779 45.917143 98.869884 46.094345 98.714844 46.263672 C 98.459192 46.469673 98.274682 46.644815 98.121094 46.8125 C 97.864028 47.019241 97.681115 47.195254 97.527344 47.363281 C 97.272133 47.568292 97.088674 47.743118 96.935547 47.910156 C 96.674491 48.119386 96.490147 48.297717 96.335938 48.466797 C 96.080871 48.671564 95.898238 48.845415 95.746094 49.011719 C 95.484766 49.220783 95.301976 49.399795 95.148438 49.568359 C 94.891227 49.774356 94.708611 49.948675 94.556641 50.115234 C 94.294276 50.324867 94.109863 50.50167 93.957031 50.669922 C 93.696545 50.878271 93.513001 51.053627 93.361328 51.220703 C 93.101649 51.428335 92.918602 51.605073 92.767578 51.771484 C 92.508137 51.978599 92.326542 52.154249 92.175781 52.320312 C 91.913732 52.529019 91.731205 52.706263 91.580078 52.873047 C 91.318837 53.081032 91.1368 53.25576 90.986328 53.421875 C 90.724693 53.629833 90.542881 53.806675 90.392578 53.972656 C 90.129573 54.181439 89.947051 54.357304 89.796875 54.523438 C 89.534135 54.731844 89.352815 54.908539 89.203125 55.074219 C 88.937665 55.284511 88.755185 55.460706 88.605469 55.626953 C 88.343005 55.834972 88.162217 56.011015 88.013672 56.175781 C 87.747256 56.386379 87.565041 56.562675 87.416016 56.728516 C 87.149567 56.939239 86.966579 57.115942 86.818359 57.28125 C 86.555763 57.488955 86.37557 57.664506 86.228516 57.828125 C 85.96107 58.038857 85.778733 58.21581 85.630859 58.380859 C 85.366151 58.589513 85.185845 58.766005 85.039062 58.929688 C 84.770428 59.14087 84.588555 59.317773 84.441406 59.482422 C 84.174158 59.692594 83.993849 59.869522 83.847656 60.033203 C 83.579295 60.243972 83.397852 60.420355 83.251953 60.583984 C 82.983696 60.794451 82.803619 60.971572 82.658203 61.134766 C 82.38789 61.346558 82.207675 61.524124 82.0625 61.6875 C 81.791185 61.899956 81.609464 62.077089 81.464844 62.240234 C 81.195409 62.45131 81.014691 62.627038 80.871094 62.789062 C 80.601944 62.999561 80.420588 63.176284 80.277344 63.337891 C 80.008589 63.547597 79.828587 63.725481 79.685547 63.886719 C 79.411944 64.099565 79.231198 64.279147 79.087891 64.441406 C 78.819114 64.650683 78.640053 64.827924 78.498047 64.988281 C 78.224125 65.20066 78.04296 65.379435 77.900391 65.541016 C 77.87773 65.558591 77.853789 65.576225 77.832031 65.59375 C 77.796577 64.272678 76.79369 63.199992 75.505859 63.042969 C 75.642676 62.93079 75.766449 62.805838 75.875 62.666016 C 76.106586 62.519122 76.306751 62.331029 76.474609 62.115234 C 76.706138 61.968304 76.906012 61.781883 77.074219 61.566406 C 77.305308 61.419684 77.505435 61.232284 77.673828 61.017578 C 77.905327 60.870562 78.104493 60.681701 78.273438 60.466797 C 78.505497 60.319337 78.705465 60.131356 78.875 59.916016 C 79.106641 59.768222 79.307081 59.580422 79.476562 59.365234 C 79.707914 59.21735 79.906551 59.029285 80.076172 58.814453 C 80.306267 58.667189 80.504452 58.478868 80.673828 58.265625 C 80.906196 58.117103 81.106522 57.928282 81.277344 57.712891 C 81.507712 57.564836 81.706984 57.377691 81.876953 57.164062 C 82.108113 57.015431 82.307862 56.827612 82.478516 56.613281 C 82.708373 56.465225 82.905846 56.277245 83.076172 56.064453 C 83.306288 55.916399 83.504914 55.728237 83.675781 55.515625 C 83.907566 55.366471 84.107337 55.177187 84.279297 54.962891 C 84.509071 54.81423 84.707841 54.6266 84.878906 54.414062 C 85.10993 54.264547 85.308509 54.075087 85.480469 53.861328 C 85.709282 53.712877 85.90699 53.525752 86.078125 53.314453 C 86.308953 53.165008 86.507158 52.974738 86.679688 52.761719 C 86.908983 52.612582 87.107424 52.424599 87.279297 52.212891 C 87.509541 52.063212 87.708184 51.874559 87.880859 51.662109 C 88.10991 51.51284 88.306223 51.32252 88.478516 51.111328 C 88.708808 50.961433 88.906803 50.772705 89.080078 50.560547 C 89.673256 50.173066 90.10132 49.556417 90.238281 48.835938 L 90.445312 48.835938 L 90.445312 48.289062 L 91.037109 48.289062 L 91.037109 47.742188 L 91.628906 47.742188 L 91.628906 47.195312 L 92.220703 47.195312 L 92.220703 46.646484 L 92.8125 46.646484 L 92.8125 46.099609 L 93.404297 46.099609 L 93.404297 45.552734 L 93.996094 45.552734 L 93.996094 45.005859 L 94.587891 45.005859 L 94.587891 44.457031 L 95.179688 44.457031 L 95.179688 43.910156 L 95.769531 43.910156 L 95.771484 43.910156 L 95.771484 43.363281 L 96.361328 43.363281 L 96.363281 43.363281 L 96.363281 42.816406 L 96.953125 42.816406 L 96.955078 42.816406 L 96.955078 42.267578 L 97.544922 42.267578 L 97.544922 41.720703 L 98.136719 41.720703 L 98.136719 41.173828 L 98.728516 41.173828 L 98.728516 40.626953 L 99.320312 40.626953 L 99.320312 40.078125 L 99.912109 40.078125 L 99.912109 39.53125 L 100.50391 39.53125 L 100.50391 38.984375 L 101.0957 38.984375 L 101.0957 38.4375 L 101.6875 38.4375 L 101.6875 37.888672 L 102.2793 37.888672 L 102.2793 36.980469 C 102.2793 32.952225 99.002861 29.675781 94.974609 29.675781 L 40.529297 29.675781 z "
     id="path874" />
  <g
     id="g967"
     transform="translate(-36.947634,92.11364)" />
  <path
     style="fill:#000000;stroke-width:0.08908551;fill-opacity:0.50196081"
     inkscape:connector-curvature="0"
     d="m 38.529446,112.32465 c -4.028336,0 -7.305546,-3.27721 -7.305546,-7.30546 V 38.980805 c 0,-4.028244 3.27721,-7.305454 7.305546,-7.305454 h 54.445142 c 4.028252,0 7.305542,3.27721 7.305542,7.305454 v 0.908592 h -5.30684 v -0.908592 c 0,-1.102247 -0.89663,-1.999167 -1.998702,-1.999167 H 38.529446 c -1.102339,0 -1.999158,0.89692 -1.999158,1.999167 v 66.038385 c 0,1.10234 0.896819,1.99916 1.999158,1.99916 h 54.442956 c 1.102068,0 1.998708,-0.89682 1.998708,-1.99916 v -0.90868 h 0.002 V 89.758672 h 5.30684 v 15.260518 c 0,4.02825 -3.2773,7.30546 -7.305556,7.30546 z M 77.647479,98.233159 c -0.53019,0 -1.042863,-0.156628 -1.482292,-0.453019 -0.88085,-0.594231 -1.321283,-1.653425 -1.121959,-2.698573 l 2.435397,-12.731344 c 0.0201,-0.105454 0.0546,-0.192482 0.08621,-0.256976 0.05795,-0.211457 0.135652,-0.434043 0.274034,-0.656537 L 99.10746,47.797105 c 0.0119,-0.02035 0.0245,-0.04003 0.0378,-0.05937 0.003,-0.0059 0.0238,-0.03885 0.0238,-0.03885 l 3.1276,-4.515746 c 0.27468,-0.375656 1.78169,-2.249755 4.49732,-2.249755 0.92756,0 1.86561,0.22715 2.78798,0.675145 2.6723,1.299939 5.06372,3.115558 5.32754,3.318257 0.22093,0.171868 0.40603,0.3659 0.55427,0.58018 0.24028,0.341542 2.33532,3.465222 0.68253,6.181218 -0.68363,1.120133 -2.55342,3.866056 -3.11619,4.689807 L 90.619167,90.116385 c -0.127354,0.190566 -0.277048,0.302953 -0.35751,0.363434 l -0.0059,0.0047 c -0.005,0.0068 -0.01105,0.01423 -0.01691,0.02153 -0.07344,0.09204 -0.19631,0.246212 -0.393173,0.373195 l -10.761457,6.932443 c -0.434229,0.276587 -0.92966,0.421542 -1.436588,0.421542 z m 3.770731,-8.2457 2.226217,-1.433759 -1.722303,-1.198313 z m 6.284481,-5.074582 19.094829,-28.746371 -4.66837,-3.227312 -18.445493,29.17485 z M 109.74869,51.756116 c 0.78535,-1.165284 1.35138,-2.020779 1.69037,-2.554343 -0.0357,-0.100718 -0.0879,-0.227787 -0.15189,-0.357695 -0.87455,-0.631175 -2.42627,-1.686539 -4.02505,-2.463122 -0.12416,-0.06029 -0.24074,-0.08967 -0.35595,-0.08967 -0.17597,0 -0.31975,0.07109 -0.39409,0.116945 l -1.45657,2.104624 z M 41.941663,87.751479 c -1.462948,0 -2.653143,-1.190193 -2.653143,-2.653146 0,-1.462952 1.190195,-2.653147 2.653143,-2.653147 h 18.797532 c 1.46304,0 2.653143,1.190195 2.653143,2.653147 0,1.462953 -1.190103,2.653146 -2.653143,2.653146 z m 0,-17.4341 c -1.462948,0 -2.653143,-1.190103 -2.653143,-2.653147 0,-1.462952 1.190195,-2.653145 2.653143,-2.653145 H 73.18637 c 1.463049,0 2.653152,1.190193 2.653152,2.653145 0,1.463044 -1.190103,2.653147 -2.653152,2.653147 z m 0,-17.32281 c -1.462948,0 -2.653143,-1.190196 -2.653143,-2.653052 0,-1.463048 1.190195,-2.653235 2.653143,-2.653235 H 85.63538 c 1.463224,0 2.653604,1.190187 2.653604,2.653235 0,1.462856 -1.19038,2.653052 -2.653604,2.653052 z"
     id="path3605" />
  <path
     id="path815"
     d="m 40.529446,110.32465 c -4.028336,0 -7.305546,-3.27721 -7.305546,-7.30546 V 36.980805 c 0,-4.028244 3.27721,-7.305454 7.305546,-7.305454 h 54.445142 c 4.028252,0 7.305542,3.27721 7.305542,7.305454 v 0.908592 h -5.30684 v -0.908592 c 0,-1.102247 -0.89663,-1.999167 -1.998702,-1.999167 H 40.529446 c -1.102339,0 -1.999158,0.89692 -1.999158,1.999167 v 66.038385 c 0,1.10234 0.896819,1.99916 1.999158,1.99916 h 54.442956 c 1.102068,0 1.998708,-0.89682 1.998708,-1.99916 v -0.90868 h 0.002 V 87.758672 h 5.30684 v 15.260518 c 0,4.02825 -3.2773,7.30546 -7.305556,7.30546 z M 79.647479,96.233159 c -0.53019,0 -1.042863,-0.156628 -1.482292,-0.453019 -0.88085,-0.594231 -1.321283,-1.653425 -1.121959,-2.698573 l 2.435397,-12.731344 c 0.0201,-0.105454 0.0546,-0.192482 0.08621,-0.256976 0.05795,-0.211457 0.135652,-0.434043 0.274034,-0.656537 L 101.10746,45.797105 c 0.0119,-0.02035 0.0245,-0.04003 0.0378,-0.05937 0.003,-0.0059 0.0238,-0.03885 0.0238,-0.03885 l 3.1276,-4.515746 c 0.27468,-0.375656 1.78169,-2.249755 4.49732,-2.249755 0.92756,0 1.86561,0.22715 2.78798,0.675145 2.6723,1.299939 5.06372,3.115558 5.32754,3.318257 0.22093,0.171868 0.40603,0.3659 0.55427,0.58018 0.24028,0.341542 2.33532,3.465222 0.68253,6.181218 -0.68363,1.120133 -2.55342,3.866056 -3.11619,4.689807 L 92.619167,88.116385 c -0.127354,0.190566 -0.277048,0.302953 -0.35751,0.363434 l -0.0059,0.0047 c -0.005,0.0068 -0.01105,0.01423 -0.01691,0.02153 -0.07344,0.09204 -0.19631,0.246212 -0.393173,0.373195 l -10.761457,6.932443 c -0.434229,0.276587 -0.92966,0.421542 -1.436588,0.421542 z m 3.770731,-8.2457 2.226217,-1.433759 -1.722303,-1.198313 z m 6.284481,-5.074582 19.094829,-28.746371 -4.66837,-3.227312 -18.445493,29.17485 z M 111.74869,49.756116 c 0.78535,-1.165284 1.35138,-2.020779 1.69037,-2.554343 -0.0357,-0.100718 -0.0879,-0.227787 -0.15189,-0.357695 -0.87455,-0.631175 -2.42627,-1.686539 -4.02505,-2.463122 -0.12416,-0.06029 -0.24074,-0.08967 -0.35595,-0.08967 -0.17597,0 -0.31975,0.07109 -0.39409,0.116945 l -1.45657,2.104624 z M 43.941663,85.751479 c -1.462948,0 -2.653143,-1.190193 -2.653143,-2.653146 0,-1.462952 1.190195,-2.653147 2.653143,-2.653147 h 18.797532 c 1.46304,0 2.653143,1.190195 2.653143,2.653147 0,1.462953 -1.190103,2.653146 -2.653143,2.653146 z m 0,-17.4341 c -1.462948,0 -2.653143,-1.190103 -2.653143,-2.653147 0,-1.462952 1.190195,-2.653145 2.653143,-2.653145 H 75.18637 c 1.463049,0 2.653152,1.190193 2.653152,2.653145 0,1.463044 -1.190103,2.653147 -2.653152,2.653147 z m 0,-17.32281 c -1.462948,0 -2.653143,-1.190196 -2.653143,-2.653052 0,-1.463048 1.190195,-2.653235 2.653143,-2.653235 H 87.63538 c 1.463224,0 2.653604,1.190187 2.653604,2.653235 0,1.462856 -1.19038,2.653052 -2.653604,2.653052 z"
     inkscape:connector-curvature="0"
     style="stroke-width:0.08908551;fill:#ffffff" />
</svg>
